<svg width="21" height="21" viewBox="0 0 21 21" fill="none" xmlns="http://www.w3.org/2000/svg">
<path d="M18.3087 16.275C18.3087 16.575 18.242 16.8833 18.1003 17.1833C17.9587 17.4833 17.7753 17.7666 17.5337 18.0333C17.1253 18.4833 16.6753 18.8083 16.167 19.0166C15.667 19.225 15.1253 19.3333 14.542 19.3333C13.692 19.3333 12.7837 19.1333 11.8253 18.725C10.867 18.3166 9.90866 17.7666 8.95866 17.075C8.00033 16.375 7.09199 15.6 6.22533 14.7416C5.36699 13.875 4.59199 12.9666 3.90033 12.0166C3.21699 11.0666 2.66699 10.1166 2.26699 9.17496C1.86699 8.22496 1.66699 7.31663 1.66699 6.44996C1.66699 5.88329 1.76699 5.34163 1.96699 4.84163C2.16699 4.33329 2.48366 3.86663 2.92533 3.44996C3.45866 2.92496 4.04199 2.66663 4.65866 2.66663C4.89199 2.66663 5.12533 2.71663 5.33366 2.81663C5.55033 2.91663 5.74199 3.06663 5.89199 3.28329L7.82533 6.00829C7.97533 6.21663 8.08366 6.40829 8.15866 6.59163C8.23366 6.76663 8.27533 6.94163 8.27533 7.09996C8.27533 7.29996 8.21699 7.49996 8.10033 7.69163C7.99199 7.88329 7.83366 8.08329 7.63366 8.28329L7.00033 8.94163C6.90866 9.03329 6.86699 9.14163 6.86699 9.27496C6.86699 9.34163 6.87533 9.39996 6.89199 9.46663C6.91699 9.53329 6.94199 9.58329 6.95866 9.63329C7.10866 9.90829 7.36699 10.2666 7.73366 10.7C8.10866 11.1333 8.50866 11.575 8.94199 12.0166C9.39199 12.4583 9.82533 12.8666 10.267 13.2416C10.7003 13.6083 11.0587 13.8583 11.342 14.0083C11.3837 14.025 11.4337 14.05 11.492 14.075C11.5587 14.1 11.6253 14.1083 11.7003 14.1083C11.842 14.1083 11.9503 14.0583 12.042 13.9666L12.6753 13.3416C12.8837 13.1333 13.0837 12.975 13.2753 12.875C13.467 12.7583 13.6587 12.7 13.867 12.7C14.0253 12.7 14.192 12.7333 14.3753 12.8083C14.5587 12.8833 14.7503 12.9916 14.9587 13.1333L17.717 15.0916C17.9337 15.2416 18.0837 15.4166 18.1753 15.625C18.2587 15.8333 18.3087 16.0416 18.3087 16.275Z" stroke="black" stroke-width="2" stroke-miterlimit="10"/>
<path d="M15.4167 8.50004C15.4167 8.00004 15.025 7.23337 14.4417 6.60837C13.9083 6.03337 13.2 5.58337 12.5 5.58337" stroke="black" stroke-width="2" stroke-linecap="round" stroke-linejoin="round"/>
<path d="M18.3333 8.49996C18.3333 5.27496 15.725 2.66663 12.5 2.66663" stroke="black" stroke-width="2" stroke-linecap="round" stroke-linejoin="round"/>
</svg>
