<svg width="32" height="32" viewBox="0 0 32 32" fill="none" xmlns="http://www.w3.org/2000/svg">
<path d="M16 15.5714C15.0528 15.5714 14.1444 15.1952 13.4746 14.5254C12.8048 13.8556 12.4286 12.9472 12.4286 12C12.4286 11.0528 12.8048 10.1444 13.4746 9.47462C14.1444 8.80485 15.0528 8.42857 16 8.42857C16.9472 8.42857 17.8556 8.80485 18.5254 9.47462C19.1952 10.1444 19.5714 11.0528 19.5714 12C19.5714 12.469 19.4791 12.9334 19.2996 13.3667C19.1201 13.8 18.857 14.1937 18.5254 14.5254C18.1937 14.857 17.8 15.1201 17.3667 15.2996C16.9334 15.4791 16.469 15.5714 16 15.5714ZM16 2C13.3478 2 10.8043 3.05357 8.92893 4.92893C7.05357 6.8043 6 9.34783 6 12C6 19.5 16 30.5714 16 30.5714C16 30.5714 26 19.5 26 12C26 9.34783 24.9464 6.8043 23.0711 4.92893C21.1957 3.05357 18.6522 2 16 2Z" fill="#0178FF"/>
</svg>
