<svg width="1920" height="93" viewBox="0 0 1920 93" fill="none" xmlns="http://www.w3.org/2000/svg">
<g clip-path="url(#clip0_2_1968)">
<rect width="1920" height="93" fill="#0178FF"/>
<g opacity="0.4" clip-path="url(#clip1_2_1968)">
<path d="M325.736 101.697L393.315 71.0949L392.985 69.0081L350.215 88.3766L350.677 89.2855L348.689 90.1855L348.226 89.2766L326.804 98.9777L314.773 75.2688L336.195 65.5677L335.733 64.6584L337.721 63.7584L338.183 64.6673L388.676 41.8021L388.345 39.7157L311.86 74.351L325.736 101.697Z" fill="white" fill-opacity="0.3"/>
<path d="M337.721 63.7584L335.733 64.6584L336.195 65.5677L348.227 89.2766L348.689 90.1855L350.677 89.2855L350.215 88.3766L338.184 64.6674L337.721 63.7584Z" fill="white" fill-opacity="0.3"/>
<path d="M334.552 88.0226C331.054 89.6061 326.889 88.2925 325.269 85.0944C323.644 81.897 325.168 78.0076 328.666 76.4241C332.16 74.8413 336.325 76.1549 337.95 79.3527C339.57 82.5504 338.046 86.4398 334.552 88.0226ZM327.741 74.6059C323.15 76.6854 321.147 81.7946 323.28 85.9948C325.413 90.1945 330.881 91.9206 335.473 89.8411C340.064 87.762 342.067 82.6532 339.934 78.453C337.805 74.2518 332.333 72.5268 327.741 74.6059Z" fill="white" fill-opacity="0.3"/>
<path d="M328.711 107.557L346.244 142.105L400.659 117.464L400.329 115.377L347.308 139.387L331.62 108.475L391.448 81.3829L396.531 91.3971L395.422 84.3941L392.516 78.664L328.711 107.557Z" fill="white" fill-opacity="0.3"/>
<path d="M385.595 102.55C382.155 104.108 378.055 102.815 376.456 99.6662C374.856 96.5186 376.358 92.6889 379.799 91.1305C383.239 89.5725 387.339 90.8658 388.938 94.0138C390.538 97.1618 389.036 100.992 385.595 102.55ZM378.879 89.312C374.341 91.3667 372.36 96.4158 374.467 100.567C376.575 104.718 381.978 106.424 386.516 104.368C391.053 102.314 393.034 97.2646 390.927 93.1134C388.819 88.9626 383.416 87.2568 378.879 89.312Z" fill="white" fill-opacity="0.3"/>
<path d="M389.613 86.4384C389.489 86.4939 389.345 86.4483 389.288 86.3371C389.23 86.2259 389.284 86.0906 389.408 86.0355C389.527 85.9807 389.672 86.0264 389.729 86.1375C389.786 86.2487 389.733 86.3836 389.613 86.4384ZM388.483 84.2173C387.266 84.7688 386.734 86.1235 387.299 87.2375C387.865 88.3514 389.317 88.8088 390.533 88.2573C391.75 87.7062 392.283 86.3511 391.717 85.2372C391.152 84.1232 389.7 83.6662 388.483 84.2173Z" fill="white" fill-opacity="0.3"/>
<path d="M368.691 -12.245C368.419 -12.2019 368.172 -12.0648 368 -11.8624L367.698 -11.5088L345.31 14.5898C345.086 14.8492 345.019 15.1818 345.107 15.4859C345.054 14.9557 345.449 14.4626 346.027 14.3711L383.393 8.45281L383.368 8.29054L348.779 13.7689L369.431 -10.3114L380.153 -12.0096L379.836 -14.0101L369.774 -12.4164L368.691 -12.245Z" fill="white" fill-opacity="0.3"/>
<path d="M345.107 15.486C345.111 15.5051 345.1 15.5234 345.103 15.5425L346.657 25.3533C346.745 25.9053 347.303 26.276 347.898 26.1817L385.265 20.2634L384.948 18.2637L348.668 24.0099L347.431 16.1987L383.711 10.4526L383.394 8.45287L346.027 14.3712C345.449 14.4627 345.054 14.9558 345.107 15.486Z" fill="white" fill-opacity="0.3"/>
<path d="M-11.752 39.2338L37.2831 9.83122C39.031 8.78383 39.568 6.63587 38.4792 5.04301L23.2925 -17.1762L20.6038 -16.7504L33.6013 2.26462L34.6582 1.63245L35.9746 3.56026L34.9178 4.1924L36.3657 6.31139C36.7286 6.84099 36.5495 7.55834 35.9668 7.90747L-13.0684 37.306C-13.651 37.6551 -14.4202 37.5079 -14.7831 36.9783L-16.231 34.8593L-17.2879 35.4915L-18.6037 33.5676L-17.5474 32.9315L-43.1997 -4.59825C-43.7168 -4.43482 -44.2338 -4.26323 -44.7512 -4.1079L-45.4533 -6.28794L-47.1504 -6.01914L-16.8968 38.2426C-15.8078 39.8395 -13.5004 40.2812 -11.752 39.2338Z" fill="white" fill-opacity="0.3"/>
<path d="M-18.6029 33.5677L-17.2871 35.4915L-16.2302 34.8593L34.9185 4.19242L35.9754 3.56028L34.659 1.63247L33.6021 2.26464L-17.5467 32.9315L-18.6029 33.5677Z" fill="white" fill-opacity="0.3"/>
<path d="M-8.93348 -7.21647C-6.71431 -8.54641 -4.15781 -8.96352 -1.7751 -8.58259L-2.15678 -9.14184L-0.0436799 -10.4102L2.28268 -7.00747C3.23296 -6.36705 4.07522 -5.56277 4.73966 -4.5917C5.40515 -3.61672 5.83135 -2.56715 6.05335 -1.48931L8.28418 1.77359L6.17065 3.04197L5.88449 2.62251C5.25473 4.80964 3.77991 6.80853 1.56074 8.13847C-3.08523 10.925 -9.21885 9.74794 -12.1124 5.51371C-15.0059 1.27947 -13.5794 -4.42993 -8.93348 -7.21647ZM-14.2259 6.78209C-10.6071 12.0756 -2.93475 13.5471 2.87654 10.0623C8.68932 6.58133 10.4726 -0.562551 6.8532 -5.86004C3.23438 -11.1536 -4.43799 -12.6251 -10.2493 -9.14028C-16.061 -5.65542 -17.8449 1.48452 -14.2259 6.78209Z" fill="white" fill-opacity="0.3"/>
<path d="M-19.5389 9.96371C-14.0955 17.9281 -2.55566 20.1447 6.18493 14.9035C14.9255 9.66241 17.6089 -1.07721 12.1656 -9.04159C10.594 -11.3408 8.5119 -13.1595 6.13798 -14.4591L1.73369 -13.7615C5.06691 -12.7443 8.04119 -10.7163 10.0518 -7.77728C14.7695 -0.872106 12.4444 8.43682 4.86912 12.9797C-2.70677 17.5186 -12.7073 15.6005 -17.4247 8.69933C-21.9249 2.11442 -20.0036 -6.65356 -13.2401 -11.3899L-17.6449 -10.6923C-22.9939 -4.98948 -24.0095 3.42304 -19.5389 9.96371Z" fill="white" fill-opacity="0.3"/>
<path d="M6.17083 3.0419L8.28437 1.77352L6.05353 -1.48939L2.28286 -7.00754L-0.0434982 -10.4102L-2.1566 -9.14191L-1.77491 -8.58267L5.88467 2.62243L6.17083 3.0419Z" fill="white" fill-opacity="0.3"/>
<path d="M159.411 -32.306C159.716 -33.9728 161.494 -35.6202 163.294 -35.9053L190.886 -40.2754C192.532 -40.5361 194.066 -39.5152 194.307 -37.9959L200.185 -0.881187C200.426 0.638083 199.283 2.08293 197.636 2.34367L154.267 9.21262C153.55 9.32622 152.948 9.19744 152.57 8.84952C152.193 8.50161 152.051 7.94102 152.173 7.27765L159.411 -32.306ZM157.501 -23.238L155.171 -22.8689L153.358 -12.9564L154.667 -13.1637L155.027 -10.8927L152.92 -10.5589L149.718 6.94888C149.464 8.34273 149.853 9.63458 150.789 10.5015C151.724 11.3645 153.123 11.7258 154.628 11.4876L197.997 4.6186C201.001 4.14276 203.088 1.50063 202.649 -1.27144L196.77 -38.3862C196.331 -41.1582 193.531 -43.0222 190.526 -42.5463L162.934 -38.1762C160.068 -37.7221 157.442 -35.2883 156.957 -32.6348L155.609 -25.2663L157.141 -25.509L157.501 -23.238Z" fill="white" fill-opacity="0.3"/>
<path d="M208.113 70.2671L203.14 38.8671L200.971 39.2107L205.944 70.6106L206.948 69.9258L208.113 70.2671Z" fill="white" fill-opacity="0.3"/>
<path d="M230.221 76.7422L208.113 70.267L206.948 69.9257L205.944 70.6106L186.92 83.6003L188.192 85.2225L207.304 72.1736L229.512 78.678L230.221 76.7422Z" fill="white" fill-opacity="0.3"/>
<path d="M156.025 45.3044L155.867 44.3045L150.783 45.1098L147.405 23.7819L152.489 22.9767L152.33 21.9745L154.499 21.631L154.657 22.6332L242.064 8.78939L241.905 7.78715L244.074 7.44369L244.233 8.44593L249.317 7.64071L252.695 28.9685L247.611 29.7738L247.769 30.7736L245.6 31.1171L245.442 30.1172L158.035 43.9611L158.194 44.961L156.025 45.3044ZM255.18 30.6247L251.169 5.29668L144.919 22.125L148.931 47.453L200.971 39.2106L203.14 38.8671L255.18 30.6247Z" fill="white" fill-opacity="0.3"/>
<path d="M161.584 31.4432L162.668 31.2715L161.823 25.9382L236.27 14.147L237.115 19.4803L238.199 19.3086L238.516 21.309L237.432 21.4808L238.276 26.8102L163.829 38.6014L162.985 33.272L161.901 33.4437L161.584 31.4432ZM240.761 28.4672L238.122 11.803L159.338 24.2811L161.978 40.9453L240.761 28.4672Z" fill="white" fill-opacity="0.3"/>
<path d="M154.658 22.6333L154.499 21.631L152.33 21.9745L156.025 45.3044L158.194 44.961L158.036 43.9611L154.658 22.6333Z" fill="white" fill-opacity="0.3"/>
<path d="M245.601 31.1171L247.769 30.7736L244.074 7.44366L241.905 7.78712L242.064 8.78936L245.442 30.1172L245.601 31.1171Z" fill="white" fill-opacity="0.3"/>
<path d="M237.431 21.4807L238.515 21.309L238.199 19.3085L161.584 31.4431L161.9 33.4436L162.984 33.2719L237.431 21.4807Z" fill="white" fill-opacity="0.3"/>
<path d="M198.869 133.161C198.823 133.168 198.775 133.175 198.728 133.181C196.251 133.537 189.202 134.641 180.923 135.952C165.025 138.47 144.602 141.751 143.382 141.947C143.054 141.864 142.292 141.18 142.031 140.728C140.052 137.303 140.721 133.1 141.369 129.033C141.437 128.61 141.504 128.191 141.567 127.777C141.659 127.173 141.746 126.57 141.834 125.967C142.413 121.988 142.961 118.229 144.553 114.587C145.784 111.768 147.562 109.835 150.499 108.123C160.362 102.374 170.337 98.6644 180.146 97.0964C180.153 97.0953 180.161 97.0941 180.169 97.0929C183.145 96.6214 185.95 97.01 188.506 98.2486L188.506 98.2482C193.323 100.583 197.401 105.869 200.974 114.406C202.665 118.447 204.006 121.856 204.595 125.839C204.635 126.323 204.977 132.193 198.869 133.161ZM189.56 96.4456C186.577 95.0003 183.311 94.5453 179.852 95.0932C179.844 95.0945 179.835 95.0959 179.826 95.0973C169.727 96.7115 159.478 100.519 149.365 106.414C146.038 108.353 143.928 110.652 142.524 113.868C140.827 117.751 140.235 121.815 139.662 125.746C139.575 126.344 139.488 126.944 139.397 127.544C139.334 127.953 139.269 128.368 139.202 128.787C138.535 132.972 137.779 137.716 140.093 141.72C140.387 142.229 141.943 144.225 143.646 143.955C143.648 143.955 143.649 143.955 143.651 143.954C143.938 143.908 163.677 140.736 179.71 138.194L179.559 137.242L181.728 136.899L181.878 137.85C187.394 136.977 192.314 136.204 195.631 135.695L195.495 134.834L197.663 134.491L197.802 135.365C198.275 135.293 198.683 135.233 199.01 135.186C199.071 135.178 199.13 135.169 199.189 135.16C205.783 134.115 207.04 128.462 206.777 125.594L206.771 125.543C206.152 121.333 204.767 117.806 203.02 113.632C199.254 104.632 194.852 99.0101 189.56 96.4456Z" fill="white" fill-opacity="0.3"/>
<path d="M114.154 -1.23076L129.315 94.4975L102.571 98.7334L102.888 100.733L131.801 96.1538L116.006 -3.57071L87.0929 1.00865L87.4091 3.00515L114.154 -1.23076Z" fill="white" fill-opacity="0.3"/>
<path d="M76.5486 102.855L61.3867 7.12661L85.2403 3.34857L100.402 99.0769L76.5486 102.855ZM102.887 100.733L87.0922 1.00868L58.9025 5.4735L74.6973 105.198L100.719 101.077L102.887 100.733Z" fill="white" fill-opacity="0.3"/>
<path d="M91.4668 73.8502L93.6353 73.5068L89.2015 45.5124L87.0329 45.8559L91.4668 73.8502Z" fill="white" fill-opacity="0.3"/>
<path d="M101.104 72.3239L103.273 71.9804L98.8391 43.9861L96.6706 44.3295L101.104 72.3239Z" fill="white" fill-opacity="0.3"/>
<path d="M97.4401 22.6815L111.174 20.5063L112.195 26.9532L98.4612 29.1285L97.4401 22.6815ZM96.6094 31.4684L114.68 28.6063L113.026 18.1663L94.9558 21.0284L96.6094 31.4684Z" fill="white" fill-opacity="0.3"/>
<path d="M75.6904 24.1448L76.3311 28.1896L78.4996 27.8461L77.8589 23.8014L76.6833 23.3964L75.6904 24.1448Z" fill="white" fill-opacity="0.3"/>
<path d="M77.3106 20.3373L76.67 16.2925L74.5014 16.636L75.1421 20.6808L76.3177 21.0857L77.3106 20.3373Z" fill="white" fill-opacity="0.3"/>
<path d="M76.6837 23.3965L77.8593 23.8014L81.9787 25.2242L82.7883 23.3184L78.6696 21.8997L76.6837 23.3965Z" fill="white" fill-opacity="0.3"/>
<path d="M76.3177 21.0857L75.1421 20.6808L71.0234 19.262L70.2136 21.1638L74.3325 22.5865L76.3177 21.0857Z" fill="white" fill-opacity="0.3"/>
<path d="M80.7895 17.7153L77.3107 20.3374L76.3178 21.0858L74.3326 22.5866L70.8543 25.2086L72.2127 26.771L75.6909 24.1449L76.6838 23.3965L78.6696 21.8997L82.1478 19.2737L80.7895 17.7153Z" fill="white" fill-opacity="0.3"/>
<path d="M265.517 32.0758C266.288 22.7199 268.561 16.3464 272.467 12.5927C274.531 10.6106 277.098 9.36402 280.099 8.88873C280.108 8.88736 280.116 8.88606 280.124 8.88476C290.094 7.31801 300.896 7.772 312.232 10.2328C315.583 10.9577 317.893 12.2593 319.954 14.5788C322.628 17.5917 324.335 21.0502 326.144 24.7114C326.422 25.267 326.696 25.8241 326.974 26.3802C327.167 26.761 327.361 27.1474 327.559 27.5366C329.456 31.2504 331.417 35.0901 330.589 38.9887C330.487 39.4591 330.009 40.2979 329.737 40.5045L329.625 40.5218C321.466 41.7964 280.415 48.2136 273.451 49.4193C273.405 49.4275 273.358 49.4352 273.312 49.4425C267.25 50.4027 265.722 44.7209 265.605 44.2461C264.927 40.2192 265.152 36.5073 265.517 32.0758ZM273.664 51.7046C273.724 51.695 273.786 51.6848 273.847 51.6739C275.452 51.3961 278.878 50.8396 283.295 50.133L283.123 49.0461L285.575 48.6577L285.747 49.7419C300.694 47.3597 324.042 43.7104 329.974 42.7838L330.177 42.7521L330.181 42.7514C331.984 42.4659 332.89 39.9798 333.016 39.3785C334.005 34.7396 331.775 30.3698 329.807 26.5137C329.609 26.1292 329.416 25.7476 329.228 25.3705C328.95 24.8188 328.677 24.266 328.404 23.7141C326.609 20.0849 324.755 16.3339 321.881 13.0954C319.497 10.4072 316.71 8.83457 312.855 7.99784C301.198 5.46952 290.068 5.00644 279.77 6.62114C279.76 6.62271 279.75 6.62421 279.741 6.62579C276.195 7.18735 273.154 8.6678 270.704 11.021C266.369 15.1892 263.864 22.0356 263.047 31.9583C262.668 36.553 262.437 40.4081 263.163 44.6908L263.174 44.7473C263.831 47.6423 266.863 52.7822 273.664 51.7046Z" fill="white" fill-opacity="0.3"/>
<path d="M281.143 17.0443C281.747 15.6686 283.447 14.9467 286.341 14.8348C292.068 14.6127 298.463 14.9697 305.356 15.892C305.835 15.9588 306.352 16.0115 306.887 16.0694C310.976 16.5104 313.901 17.0336 314.29 19.7937C314.565 21.7536 312.2 22.5386 308.017 23.2333L307.513 23.3176C303.845 23.941 300.289 24.4899 296.846 25.0214C295.092 25.2924 293.337 25.5629 291.562 25.8441C285.362 26.8261 282.477 22.3981 282.346 22.1905C281.412 20.6791 280.537 18.4245 281.143 17.0443ZM280.191 23.3717C280.343 23.6167 283.995 29.36 291.92 28.1047C293.692 27.824 295.443 27.5541 297.194 27.2837C298.921 27.017 300.682 26.7455 302.468 26.4627C304.249 26.1806 306.059 25.8865 307.902 25.5735L308.393 25.4912C311.537 24.9691 317.387 23.9973 316.745 19.4411C316.085 14.7431 310.76 14.1718 307.234 13.7926C306.721 13.7392 306.23 13.6824 305.77 13.6208C298.728 12.6773 292.179 12.3162 286.3 12.5421C282.363 12.6968 279.857 13.9375 278.852 16.2291C277.698 18.8539 279.404 22.098 280.191 23.3717Z" fill="white" fill-opacity="0.3"/>
<path d="M283.123 49.0461L285.342 63.0536C286.01 62.8578 286.476 62.7737 286.535 62.7635C286.604 62.7533 287.086 62.6872 287.794 62.6665L285.747 49.742L285.575 48.6578L283.123 49.0461Z" fill="white" fill-opacity="0.3"/>
<path d="M292.315 66.1225C293.172 66.8715 293.51 67.9875 293.35 69.5336C292.787 74.9554 292.401 80.4033 292.259 82.5344L290.972 82.7383L291.151 83.8686L288.699 84.2569L288.52 83.1266L287.233 83.3305C286.439 81.3476 284.389 76.2855 282.178 71.3031C281.547 69.8823 281.525 68.7166 282.108 67.7391C282.88 66.4464 284.555 65.7094 285.703 65.338L285.642 64.9574L285.504 64.0852L287.956 63.6969L288.094 64.5691L288.155 64.9517C289.37 64.9495 291.185 65.1339 292.315 66.1225ZM285.341 63.0536C283.815 63.5007 281.225 64.538 279.953 66.658C278.985 68.2718 278.961 70.1431 279.883 72.2195C282.683 78.5294 285.224 84.9712 285.249 85.0357L285.593 85.9075L294.615 84.4786L294.672 83.5432C294.677 83.474 295.103 76.5642 295.816 69.6959C296.051 67.4363 295.45 65.6638 294.03 64.4284C292.17 62.8093 289.395 62.6197 287.793 62.6664C287.085 62.6871 286.604 62.7532 286.534 62.7634C286.475 62.7736 286.009 62.8577 285.341 63.0536Z" fill="white" fill-opacity="0.3"/>
<path d="M287.956 63.6969L285.504 64.0853L288.699 84.257L291.151 83.8686L290.972 82.7383L288.155 64.9517L288.094 64.5691L287.956 63.6969Z" fill="white" fill-opacity="0.3"/>
<path d="M27.5458 25.8016C39.9776 23.8326 51.5685 31.5572 53.3839 43.0193C55.1999 54.4854 46.5635 65.414 34.1317 67.383C21.6994 69.3521 10.1085 61.6272 8.29246 50.1611C6.47704 38.6989 15.1135 27.7707 27.5458 25.8016ZM33.3601 69.529L33.3185 69.2665L35.487 68.9231L35.5286 69.1856C48.5716 66.5812 57.49 54.9095 55.5524 42.6758C53.5625 30.112 40.8567 21.6427 27.229 23.8011C13.6012 25.9595 4.13362 37.9408 6.12353 50.5046C8.06116 62.7383 20.1507 71.0826 33.3601 69.529Z" fill="white" fill-opacity="0.3"/>
<path d="M34.7794 44.7438C34.8679 44.913 34.9432 45.0883 35.005 45.2699C34.9432 45.0883 34.8683 44.9129 34.7794 44.7438Z" fill="white" fill-opacity="0.3"/>
<path d="M35.1978 46.2755C35.208 46.4611 35.2034 46.6451 35.1865 46.8309C35.2039 46.645 35.2076 46.4612 35.1978 46.2755Z" fill="white" fill-opacity="0.3"/>
<path d="M35.0572 45.4135C35.1219 45.6353 35.1655 45.8645 35.1895 46.0969C35.1655 45.8645 35.123 45.6392 35.0572 45.4135Z" fill="white" fill-opacity="0.3"/>
<path d="M30.2671 50.6761C31.4437 50.7751 32.6015 50.4449 33.5298 49.7435C32.6011 50.445 31.4416 50.7754 30.2671 50.6761Z" fill="white" fill-opacity="0.3"/>
<path d="M35.1658 47.0431C35.1327 47.2682 35.0824 47.4878 35.0127 47.6984C35.0848 47.4834 35.1325 47.2641 35.1658 47.0431Z" fill="white" fill-opacity="0.3"/>
<path d="M35.1379 49.4774C35.442 49.6818 35.6177 50.0125 35.5776 50.3734C35.5635 50.4937 35.5451 50.623 35.5295 50.7477C35.9017 50.3831 36.2249 49.9856 36.492 49.5603C36.3209 49.5874 36.1505 49.6022 35.9793 49.6374C35.681 49.6928 35.377 49.631 35.1379 49.4774Z" fill="white" fill-opacity="0.3"/>
<path d="M34.7902 48.2359C34.8343 48.1515 34.8638 48.0613 34.9001 47.97C34.6188 48.6542 34.1611 49.2686 33.5303 49.7434C33.5877 49.7017 33.6396 49.6527 33.693 49.6076L33.7553 49.557C34.092 49.2674 34.5808 49.1981 34.984 49.3787C35.0374 49.4029 35.0786 49.4371 35.1262 49.4703C35.0481 49.4174 34.9764 49.3554 34.9151 49.2837C34.6652 48.9891 34.6171 48.5852 34.7902 48.2359Z" fill="white" fill-opacity="0.3"/>
<path d="M34.2608 43.9658C34.4239 44.1558 34.5595 44.3582 34.6813 44.5628C34.5595 44.3582 34.4243 44.1557 34.2608 43.9658Z" fill="white" fill-opacity="0.3"/>
<path d="M33.7177 43.4564C33.9109 43.6131 34.0953 43.7793 34.2587 43.9651C34.0958 43.7792 33.9117 43.613 33.7177 43.4564Z" fill="white" fill-opacity="0.3"/>
<path d="M26.5801 45.4056C26.662 45.1688 26.7655 44.9407 26.8924 44.7211C26.7655 44.9407 26.6624 45.1687 26.5801 45.4056Z" fill="white" fill-opacity="0.3"/>
<path d="M26.4082 46.1136C26.439 45.9134 26.4828 45.711 26.5452 45.518C26.4832 45.711 26.438 45.9094 26.4082 46.1136Z" fill="white" fill-opacity="0.3"/>
<path d="M26.4552 47.5494C26.5505 47.9583 26.3625 48.3876 25.9811 48.6233C25.9403 48.6501 25.895 48.6655 25.8522 48.6885C25.9345 48.6551 26.0191 48.6254 26.1083 48.6113C26.515 48.555 26.9176 48.7073 27.1521 49.0127L27.2084 49.0893C27.2395 49.1293 27.2697 49.1693 27.3049 49.2127C27.3049 49.2127 27.3049 49.2127 27.3053 49.2126C26.7732 48.5998 26.4812 47.8836 26.3933 47.1474C26.4093 47.2794 26.4243 47.4156 26.4552 47.5494Z" fill="white" fill-opacity="0.3"/>
<path d="M27.457 43.9662C27.6323 43.7797 27.8209 43.5991 28.036 43.4348C27.8218 43.599 27.6332 43.7795 27.457 43.9662Z" fill="white" fill-opacity="0.3"/>
<path d="M26.9326 44.6567C27.0478 44.4672 27.1834 44.2867 27.3317 44.1082C27.1828 44.2827 27.0487 44.4671 26.9326 44.6567Z" fill="white" fill-opacity="0.3"/>
<path d="M33.0812 43.0427C33.2345 43.1244 33.3826 43.2152 33.5249 43.3191C33.3826 43.2152 33.2354 43.1243 33.0812 43.0427Z" fill="white" fill-opacity="0.3"/>
<path d="M32.237 42.687C32.4502 42.7511 32.6553 42.8288 32.8529 42.9198C32.6553 42.8288 32.4506 42.751 32.237 42.687Z" fill="white" fill-opacity="0.3"/>
<path d="M35.9792 42.6693C35.8369 42.5042 35.6867 42.3526 35.5297 42.2062C35.6871 42.3525 35.8374 42.5042 35.9792 42.6693Z" fill="white" fill-opacity="0.3"/>
<path d="M37.3738 46.9615C37.3632 47.0692 37.3529 47.1809 37.3359 47.2897C37.3431 47.2437 37.3546 47.197 37.3604 47.1512C37.3685 47.0887 37.3678 47.0236 37.3738 46.9615Z" fill="white" fill-opacity="0.3"/>
<path d="M27.431 41.386C27.1717 41.5329 26.9184 41.6951 26.6777 41.8757C26.9171 41.6953 27.1709 41.533 27.431 41.386Z" fill="white" fill-opacity="0.3"/>
<path d="M31.3292 41.8688C31.1724 42.2239 30.8147 42.4722 30.4077 42.5122C30.3796 42.5166 30.3531 42.5249 30.3244 42.5254C30.6457 42.4908 30.9713 42.4759 31.2996 42.5054C31.5894 42.5288 31.8723 42.5819 32.1436 42.6531C31.7148 42.5335 31.4154 42.1813 31.3909 41.7612C31.3665 41.3451 31.6244 40.9496 32.0387 40.7658C32.157 40.7144 32.2833 40.6659 32.4042 40.6141C32.1262 40.5562 31.8444 40.5071 31.555 40.4836C31.3155 40.4645 31.0761 40.4575 30.8386 40.4625C30.9445 40.5843 31.0401 40.7078 31.1525 40.8286C31.4173 41.1129 31.4857 41.5138 31.3292 41.8688Z" fill="white" fill-opacity="0.3"/>
<path d="M35.4184 42.1099C35.2927 41.9993 35.1649 41.8891 35.0306 41.788C35.1653 41.889 35.2927 41.9993 35.4184 42.1099Z" fill="white" fill-opacity="0.3"/>
<path d="M28.4191 40.9195C28.1348 41.0256 27.8603 41.1545 27.5918 41.2988C27.8594 41.1547 28.1339 41.0257 28.4191 40.9195Z" fill="white" fill-opacity="0.3"/>
<path d="M27.4392 51.9563C27.6752 52.0777 27.9181 52.1898 28.1706 52.2842C27.9186 52.1898 27.6752 52.0777 27.4392 51.9563Z" fill="white" fill-opacity="0.3"/>
<path d="M32.4766 52.4746C32.5862 52.445 32.6924 52.4078 32.8006 52.3744C32.6924 52.4078 32.5858 52.4451 32.4766 52.4746Z" fill="white" fill-opacity="0.3"/>
<path d="M31.981 52.5817C31.8787 52.6019 31.7775 52.6261 31.6742 52.6425C31.6996 52.6385 31.7256 52.6384 31.7515 52.6343C31.829 52.6221 31.9037 52.598 31.981 52.5817Z" fill="white" fill-opacity="0.3"/>
<path d="M36.7062 43.7119C36.6369 43.5842 36.5585 43.4621 36.4806 43.3439C36.5591 43.4661 36.6369 43.5842 36.7062 43.7119Z" fill="white" fill-opacity="0.3"/>
<path d="M25.2803 43.3121C25.2992 43.2851 25.3165 43.2583 25.3359 43.2312C25.3169 43.2582 25.2992 43.2851 25.2803 43.3121Z" fill="white" fill-opacity="0.3"/>
<path d="M27.2657 51.8609C27.0755 51.7524 26.8915 51.6387 26.7138 51.5119C26.8915 51.6387 27.075 51.7524 27.2657 51.8609Z" fill="white" fill-opacity="0.3"/>
<path d="M36.373 43.1736C36.2519 43.0015 36.1213 42.8309 35.98 42.67C36.1213 42.8309 36.2523 43.0014 36.373 43.1736Z" fill="white" fill-opacity="0.3"/>
<path d="M25.7636 48.7318C25.6913 48.7554 25.6176 48.7752 25.5426 48.7871C25.2654 48.831 24.9771 48.7789 24.741 48.6248C24.6323 48.5523 24.5213 48.4763 24.4122 48.4039C24.5535 48.8664 24.7622 49.3141 25.0277 49.7406C25.0913 49.592 25.1642 49.4501 25.2223 49.2983C25.3177 49.0468 25.5184 48.8521 25.7636 48.7318Z" fill="white" fill-opacity="0.3"/>
<path d="M29.182 52.5689C29.4534 52.6236 29.7282 52.6697 30.0107 52.6941C29.7286 52.6696 29.4534 52.6236 29.182 52.5689Z" fill="white" fill-opacity="0.3"/>
<path d="M28.2878 52.3231C28.5089 52.398 28.7357 52.4639 28.9672 52.5208C28.7357 52.4639 28.5085 52.3981 28.2878 52.3231Z" fill="white" fill-opacity="0.3"/>
<path d="M26.3662 46.9724C26.3497 46.743 26.358 46.5137 26.3826 46.2818C26.3593 46.5135 26.3489 46.7431 26.3662 46.9724Z" fill="white" fill-opacity="0.3"/>
<path d="M24.6968 30.3707C24.8698 32.761 25.5904 37.1681 28.4211 40.919C28.1355 41.0254 27.8606 41.1545 27.5926 41.2989C27.5392 41.3277 27.4863 41.3565 27.433 41.3853C27.1725 41.5326 26.9184 41.6951 26.6786 41.8758C26.505 42.0052 26.3409 42.1413 26.1845 42.2843C26.1468 42.3229 26.1124 42.3569 26.0756 42.3953C25.9586 42.5076 25.8437 42.6196 25.7369 42.7384C25.7051 42.772 25.6774 42.809 25.6471 42.8464C25.5388 42.9696 25.4342 43.0962 25.3377 43.2297C25.3178 43.2573 25.3 43.2846 25.2805 43.3122C25.1775 43.4549 25.0812 43.6006 24.9927 43.7532C24.9823 43.7712 24.9727 43.789 24.9627 43.8069C24.8694 43.9684 24.784 44.1328 24.7062 44.3001C24.7014 44.309 24.6972 44.3218 24.692 44.3308C24.6135 44.5023 24.544 44.6804 24.4827 44.8573C24.4788 44.8661 24.4755 44.8788 24.472 44.8875C24.4136 45.0599 24.3635 45.235 24.3222 45.4127C24.3172 45.4339 24.3121 45.4551 24.3075 45.4762C24.2906 45.5564 24.2683 45.6333 24.2538 45.709C20.9586 43.218 17.5906 39.5359 16.906 34.6216L24.6968 30.3707ZM25.5436 48.7866C25.6187 48.7747 25.6925 48.7548 25.7648 48.7312C25.7939 48.7143 25.8218 48.6977 25.8531 48.6886C25.8958 48.6656 25.9412 48.6502 25.982 48.6234C26.3633 48.3877 26.5513 47.9584 26.4561 47.5495C26.4252 47.4157 26.4102 47.2795 26.3941 47.1475C26.3864 47.0875 26.372 47.0328 26.3669 46.9724C26.3495 46.7428 26.36 46.5128 26.3833 46.2808C26.3898 46.2268 26.3995 46.1682 26.4086 46.1137C26.4385 45.9092 26.484 45.7104 26.5462 45.5171C26.5578 45.4786 26.5672 45.4404 26.5803 45.4057C26.663 45.1684 26.7665 44.94 26.8939 44.72C26.9054 44.6978 26.9206 44.6791 26.9329 44.6568C27.0492 44.4671 27.1836 44.2828 27.3328 44.1083C27.3735 44.0611 27.4143 44.0139 27.4571 43.9663C27.6335 43.7794 27.8224 43.5986 28.0369 43.4341C28.2012 43.3103 28.374 43.2014 28.5529 43.0997C28.5968 43.0723 28.6442 43.0566 28.6892 43.0332C28.828 42.9582 28.969 42.891 29.1152 42.8312C29.1633 42.8114 29.2131 42.7994 29.2613 42.7795C29.4095 42.7275 29.5597 42.6792 29.7129 42.6387C29.7628 42.6267 29.8134 42.6146 29.8643 42.6066C30.0156 42.5704 30.1695 42.546 30.325 42.5254C30.3537 42.525 30.3802 42.5167 30.4082 42.5123C30.8153 42.4723 31.1729 42.224 31.3298 41.8689C31.4862 41.5139 31.4179 41.113 31.1531 40.8287C31.0407 40.7079 30.9451 40.5844 30.8392 40.4626C26.6122 35.5916 26.8384 28.7188 26.8411 28.649C26.8573 28.2795 26.6574 27.9361 26.3186 27.7533C25.9788 27.5707 25.553 27.5729 25.2076 27.7621L15.2026 33.2239C14.8296 33.4257 14.6143 33.8104 14.6486 34.2004C15.2524 40.9377 20.2146 45.6108 24.4126 48.4031C24.5217 48.4755 24.6328 48.5517 24.7416 48.6241C24.9778 48.7783 25.2663 48.8305 25.5436 48.7866Z" fill="white" fill-opacity="0.3"/>
<path d="M26.6088 51.447C26.6421 51.4703 26.6795 51.4888 26.7132 51.512C26.8911 51.6388 27.0753 51.7523 27.2658 51.8607C27.3234 51.8924 27.3802 51.9242 27.4391 51.9556C27.6754 52.0772 27.9191 52.1894 28.1715 52.284C28.2092 52.2984 28.2488 52.3084 28.2873 52.3227C28.5083 52.3978 28.7358 52.4637 28.9677 52.5207C29.0389 52.538 29.1098 52.5553 29.1813 52.5684C29.453 52.6232 29.7286 52.6693 30.0111 52.6939C30.2913 52.7188 30.5706 52.7235 30.8488 52.7161C30.9357 52.7146 31.0206 52.7011 31.1073 52.6956C31.297 52.6818 31.4863 52.6681 31.6741 52.6425C31.7776 52.6261 31.879 52.6019 31.9814 52.5815C32.1477 52.5511 32.3129 52.5168 32.4764 52.4746C32.5858 52.445 32.6927 52.4078 32.801 52.3743C32.8942 52.3432 32.9908 52.3198 33.0832 52.2888C32.3278 56.2285 30.4929 60.8529 26.2228 63.9636L18.5182 59.9324C20.6751 58.5471 24.4531 55.6737 26.6088 51.447ZM26.4437 66.1733C26.6076 66.1474 26.7679 66.0873 26.9094 65.9927C32.9281 61.992 34.9256 55.5725 35.5289 50.7477C35.5445 50.6229 35.5629 50.4936 35.577 50.3731C35.6171 50.0121 35.4413 49.6812 35.137 49.4766C35.1334 49.4731 35.1297 49.4696 35.1267 49.4701C35.079 49.4369 35.0378 49.4027 34.9844 49.3785C34.5809 49.1978 34.0918 49.2671 33.7549 49.5569L33.6926 49.6075C33.6392 49.6527 33.5873 49.7017 33.5298 49.7434C32.6015 50.4449 31.4437 50.775 30.2671 50.676C29.9728 50.6492 29.6864 50.5967 29.4111 50.5221C28.585 50.2942 27.8561 49.843 27.3057 49.2126L27.3053 49.2127C27.3049 49.2127 27.3049 49.2127 27.3049 49.2127C27.2697 49.1694 27.2395 49.1293 27.2084 49.0894L27.1521 49.0127C26.9176 48.7074 26.515 48.555 26.1083 48.6113C26.0191 48.6254 25.9345 48.6552 25.8522 48.6886C25.8209 48.6976 25.7931 48.7143 25.7639 48.7311C25.5186 48.8515 25.3178 49.0464 25.2223 49.2979C25.1642 49.4499 25.0912 49.5919 25.0276 49.7405C22.4949 55.67 15.9487 59.0755 15.8821 59.1105C15.5293 59.2887 15.3048 59.63 15.2951 59.9985C15.2841 60.3672 15.4902 60.7055 15.8327 60.8836L25.7281 66.06C25.948 66.1752 26.2009 66.2118 26.4437 66.1733Z" fill="white" fill-opacity="0.3"/>
<path d="M49.2212 41.1836L49.1354 49.4651C46.8053 48.4562 42.3081 46.9262 37.3227 47.4019C37.3291 47.3642 37.3303 47.3273 37.3359 47.2897C37.3531 47.181 37.3637 47.0692 37.3745 46.9615C37.3851 46.8579 37.3933 46.7506 37.3978 46.648C37.4013 46.5496 37.401 46.4559 37.3997 46.3582C37.3982 46.2484 37.3963 46.1386 37.3894 46.0337C37.3823 45.9329 37.3702 45.837 37.3585 45.741C37.3456 45.637 37.3335 45.5329 37.3156 45.4338C37.2965 45.3268 37.2714 45.2248 37.2462 45.1187C37.2244 45.0284 37.2037 44.9338 37.1771 44.8442C37.1438 44.7313 37.1031 44.6195 37.0634 44.5116C37.0338 44.4307 37.0072 44.3493 36.9742 44.2689C36.9249 44.1503 36.8665 44.0332 36.8092 43.9199C36.7744 43.848 36.7441 43.7794 36.7065 43.712C36.6372 43.5844 36.5592 43.4663 36.4806 43.3442C36.444 43.2888 36.4124 43.2286 36.3736 43.1736C36.2526 43.0011 36.1212 42.8303 35.9794 42.6693C35.8374 42.5043 35.687 42.3528 35.5294 42.2065C35.4938 42.1714 35.4555 42.1448 35.4191 42.1098C35.2932 41.9993 35.1657 41.8891 35.0308 41.7881C35.0245 41.785 35.0185 41.7778 35.0117 41.7708C39.0605 40.3223 44.2651 39.3797 49.2212 41.1836ZM31.3906 41.7612C31.4152 42.1814 31.7146 42.5335 32.1433 42.6531C32.1451 42.6529 32.1465 42.6567 32.1483 42.6564C32.1791 42.6638 32.2068 42.6798 32.2372 42.6872C32.4507 42.7512 32.6553 42.8289 32.8527 42.9199C32.931 42.9565 33.0058 43.0017 33.0813 43.0427C33.2357 43.1243 33.3831 43.2151 33.5256 43.3189C33.5898 43.3617 33.656 43.4083 33.7175 43.4557C33.912 43.6124 34.0967 43.7788 34.2601 43.9649C34.4242 44.155 34.5598 44.3578 34.6819 44.5626C34.7166 44.6224 34.7474 44.6828 34.7786 44.7431C34.8678 44.9124 34.9429 45.088 35.0048 45.2698C35.021 45.3162 35.0426 45.3658 35.0566 45.4125C35.1233 45.6384 35.1661 45.864 35.1897 46.0967C35.1962 46.1568 35.1951 46.2141 35.1989 46.2746C35.2085 46.4606 35.2045 46.6447 35.1867 46.831C35.1801 46.9014 35.1762 46.9713 35.1662 47.0422C35.1327 47.2636 35.0848 47.4831 35.0124 47.6985C34.9816 47.7889 34.9383 47.8814 34.9005 47.969C34.8641 48.0603 34.8346 48.1506 34.7905 48.2351C34.6173 48.5846 34.6654 48.9887 34.9155 49.2834C34.9768 49.3552 35.0485 49.4173 35.1268 49.4701C35.1298 49.4697 35.1334 49.4732 35.1371 49.4767C35.3763 49.6304 35.6805 49.6922 35.979 49.6368C36.1503 49.6015 36.3208 49.5868 36.492 49.5597C43.2629 48.4995 49.5618 51.9701 49.6263 52.0088C49.8512 52.1363 50.1162 52.1799 50.3716 52.1395C50.4979 52.1195 50.6205 52.0756 50.7363 52.0165C51.0857 51.8307 51.305 51.4902 51.3091 51.1226L51.4192 40.4848C51.4232 40.0887 51.178 39.7321 50.7912 39.5732C44.1693 36.8346 37.2039 38.5819 32.404 40.6142C32.2831 40.6659 32.1568 40.7145 32.0385 40.7658C31.6242 40.9497 31.3663 41.3452 31.3906 41.7612Z" fill="white" fill-opacity="0.3"/>
<path d="M33.3189 69.2666L36.6885 90.5415L37.6915 89.8567L38.857 90.198L35.5289 69.1856L35.4874 68.9231L33.3189 69.2666Z" fill="white" fill-opacity="0.3"/>
<path d="M36.6884 90.5415L17.6635 103.531L18.9355 105.153L38.0474 92.1042L60.2558 98.609L60.9642 96.6728L38.8569 90.198L37.6914 89.8567L36.6884 90.5415Z" fill="white" fill-opacity="0.3"/>
</g>
<g opacity="0.4" clip-path="url(#clip2_2_1968)">
<path d="M843.658 19.8845L911.237 -10.7176L910.906 -12.8044L868.137 6.5641L868.599 7.473L866.61 8.37298L866.148 7.46407L844.726 17.1652L832.695 -6.54365L854.117 -16.2448L853.655 -17.1541L855.643 -18.0541L856.105 -17.1452L906.597 -40.0104L906.267 -42.0968L829.782 -7.46151L843.658 19.8845Z" fill="white" fill-opacity="0.3"/>
<path d="M855.643 -18.0541L853.655 -17.1541L854.117 -16.2448L866.148 7.4641L866.611 8.37301L868.599 7.47303L868.137 6.56413L856.106 -17.1451L855.643 -18.0541Z" fill="white" fill-opacity="0.3"/>
<path d="M852.474 6.21007C848.976 7.79356 844.811 6.47996 843.191 3.28187C841.566 0.0844599 843.089 -3.80489 846.588 -5.38838C850.082 -6.97119 854.246 -5.6576 855.871 -2.45979C857.492 0.737905 855.968 4.62726 852.474 6.21007ZM845.663 -7.20662C841.072 -5.12712 839.069 -0.0179207 841.202 4.18225C843.335 8.38203 848.803 10.1081 853.395 8.02857C857.986 5.94947 859.989 0.84068 857.856 -3.35949C855.727 -7.56075 850.254 -9.28572 845.663 -7.20662Z" fill="white" fill-opacity="0.3"/>
<path d="M846.633 25.7447L864.166 60.2928L918.581 35.6512L918.251 33.5644L865.23 57.5746L849.542 26.6628L909.369 -0.429647L914.453 9.58457L913.343 2.58161L910.438 -3.14852L846.633 25.7447Z" fill="white" fill-opacity="0.3"/>
<path d="M881.16 46.3853C873.916 49.6661 865.284 46.9429 861.921 40.3143C858.555 33.686 861.717 25.6234 868.96 22.3422C876.209 19.0608 884.841 21.7835 888.203 28.4125C891.565 35.0415 888.408 43.1035 881.16 46.3853ZM868.04 20.5237C859.695 24.3018 856.059 33.5836 859.933 41.2143C863.803 48.8461 873.743 51.9806 882.084 48.2031C890.425 44.4257 894.062 35.1439 890.191 27.5122C886.317 19.8815 876.381 16.7459 868.04 20.5237Z" fill="white" fill-opacity="0.3"/>
<path d="M903.517 20.7371C900.077 22.2955 895.977 21.0022 894.377 17.8537C892.778 14.7061 894.28 10.8764 897.721 9.31797C901.161 7.75995 905.261 9.05326 906.86 12.2013C908.46 15.3493 906.957 19.179 903.517 20.7371ZM896.8 7.49946C892.263 9.55417 890.282 14.6033 892.389 18.7541C894.497 22.9053 899.9 24.6111 904.437 22.556C908.975 20.5012 910.956 15.4521 908.849 11.3009C906.741 7.15014 901.338 5.44435 896.8 7.49946Z" fill="white" fill-opacity="0.3"/>
<path d="M903.943 36.0685C901.749 37.0615 899.142 36.2374 898.122 34.2334C897.106 32.2286 898.059 29.7909 900.254 28.7979C902.444 27.8056 905.055 28.629 906.071 30.6342C907.087 32.6389 906.134 35.0762 903.943 36.0685ZM899.329 26.9801C896.042 28.4686 894.609 32.1262 896.138 35.133C897.662 38.1401 901.576 39.376 904.864 37.8874C908.151 36.3985 909.584 32.7409 908.059 29.7338C906.531 26.727 902.617 25.4911 899.329 26.9801Z" fill="white" fill-opacity="0.3"/>
<path d="M917.625 29.871C917.643 29.8984 917.664 29.9207 917.677 29.948L917.449 28.5095C917.357 28.9584 917.406 29.4323 917.625 29.871Z" fill="white" fill-opacity="0.3"/>
<path d="M907.535 4.62594C907.411 4.68143 907.267 4.63579 907.21 4.52461C907.152 4.41343 907.206 4.27813 907.33 4.22303C907.449 4.16822 907.594 4.21386 907.651 4.32504C907.708 4.43622 907.655 4.57113 907.535 4.62594ZM906.405 2.40481C905.188 2.95631 904.656 4.31103 905.221 5.42497C905.787 6.53892 907.238 6.99634 908.455 6.44484C909.672 5.89374 910.205 4.53862 909.639 3.42468C909.074 2.31073 907.622 1.85371 906.405 2.40481Z" fill="white" fill-opacity="0.3"/>
<path d="M867.273 52.9215C867.149 52.977 867.005 52.9314 866.948 52.8202C866.895 52.7084 866.944 52.5737 867.068 52.5182C867.187 52.4634 867.332 52.5091 867.389 52.6203C867.447 52.7314 867.393 52.8667 867.273 52.9215ZM866.143 50.7004C864.926 51.2515 864.398 52.6056 864.964 53.7195C865.525 54.8341 866.977 55.2915 868.194 54.7404C869.41 54.1889 869.943 52.8338 869.378 51.7203C868.812 50.6063 867.365 50.1483 866.143 50.7004Z" fill="white" fill-opacity="0.3"/>
<path d="M854.869 28.4756C854.745 28.5311 854.601 28.4854 854.543 28.3743C854.486 28.2631 854.54 28.1278 854.664 28.0723C854.783 28.0175 854.928 28.0635 854.985 28.1747C855.042 28.2859 854.989 28.4208 854.869 28.4756ZM856.973 27.2743C856.408 26.1604 854.956 25.703 853.739 26.2545C852.522 26.8056 851.99 28.1603 852.555 29.2742C853.121 30.3882 854.572 30.8456 855.789 30.2945C857.006 29.743 857.539 28.3883 856.973 27.2743Z" fill="white" fill-opacity="0.3"/>
<path d="M923.588 67.27L923.474 66.5476L923.176 66.7575L923.588 67.27Z" fill="white" fill-opacity="0.3"/>
<path d="M922.675 88.6055L926.538 85.8908L926.179 83.6262L921.378 87.0009L922.675 88.6055Z" fill="white" fill-opacity="0.3"/>
<path d="M921.286 80.6665L919.988 79.0619L916.782 81.3151L918.079 82.9197L921.286 80.6665Z" fill="white" fill-opacity="0.3"/>
<path d="M915.861 66.2118L923.978 76.2569L921.754 77.8204L913.637 67.7753L915.348 66.5728L911.871 69.0164L919.987 79.0619L921.285 80.6665L925.267 77.8677L924.589 73.5843L917.627 64.9703L915.861 66.2118Z" fill="white" fill-opacity="0.3"/>
<path d="M901.239 72.6199L903.234 75.0863L911.871 69.0165L915.348 66.5729L915.861 66.2119L917.628 64.9704L922.664 61.4306L922.305 59.1664L916.33 63.3658L910.574 67.4119L903.703 72.2402L903.005 71.3788C902.197 70.3787 902.437 68.9362 903.535 68.1634L921.708 55.3925L921.349 53.1279L902.238 66.5588C900.165 68.0159 899.716 70.7358 901.239 72.6199Z" fill="white" fill-opacity="0.3"/>
<path d="M916.271 94.8947L914.638 92.8735L913.655 93.5632L912.358 91.9586L913.34 91.2685L911.466 88.9509L910.483 89.641L909.185 88.0359L910.168 87.3462L908.535 85.3251L914.097 81.4171L915.73 83.4378L916.645 82.7943L917.942 84.3989L917.027 85.0425L918.898 87.3612L919.817 86.717L921.114 88.3212L920.195 88.9658L921.828 90.9869L916.271 94.8947ZM918.079 82.9197L916.782 81.3151L914.565 78.5705L905.471 84.9619L915.798 97.7411L924.892 91.3501L922.676 88.6055L921.378 87.0009L918.079 82.9197Z" fill="white" fill-opacity="0.3"/>
<path d="M917.942 84.399L916.644 82.7944L915.729 83.4379L910.168 87.3463L909.185 88.036L910.483 89.641L911.465 88.9509L917.027 85.0425L917.942 84.399Z" fill="white" fill-opacity="0.3"/>
<path d="M921.114 88.3211L919.816 86.7169L918.897 87.3611L913.34 91.2684L912.357 91.9585L913.655 93.5632L914.637 92.8734L920.195 88.9657L921.114 88.3211Z" fill="white" fill-opacity="0.3"/>
<path d="M399.921 34.8031L388.723 39.874L389.054 41.9604L398.856 37.5214L410.887 61.2307L393.363 69.1665L393.693 71.2533L413.798 62.149L399.921 34.8031Z" fill="white" fill-opacity="0.3"/>
<path d="M395.799 84.5525L396.909 91.5555L407.513 112.453L400.707 115.535L401.037 117.622L410.423 113.371L395.799 84.5525Z" fill="white" fill-opacity="0.3"/>
<path d="M422.359 3.46875C422.347 3.15278 422.18 2.85711 421.888 2.6794L392.532 -15.2237L392.136 -15.4666C391.908 -15.6059 391.631 -15.6598 391.358 -15.6167L390.274 -15.445L380.214 -13.8517L380.531 -11.8512L391.252 -13.5491L418.336 2.97049L383.746 8.44898L383.772 8.61125L421.137 2.69321C421.715 2.60171 422.244 2.94852 422.359 3.46875Z" fill="white" fill-opacity="0.3"/>
<path d="M423.934 13.3321L422.38 3.52133C422.377 3.50224 422.363 3.48766 422.359 3.46873C422.243 2.9485 421.715 2.60168 421.137 2.69318L383.772 8.61123L384.089 10.6109L420.37 4.86463L421.607 12.6758L385.326 18.4221L385.643 20.4218L423.008 14.5037C423.606 14.4089 424.021 13.8842 423.934 13.3321Z" fill="white" fill-opacity="0.3"/>
<path d="M403.567 10.6206L413.087 9.11282L413.367 10.8854L403.848 12.3932L403.567 10.6206ZM401.996 14.7363L415.853 12.5417L414.938 6.77005L401.082 8.96469L401.996 14.7363Z" fill="white" fill-opacity="0.3"/>
<path d="M748.143 -5.07031L726.035 -11.5455L724.87 -11.8868L723.866 -11.2019L704.842 1.78778L706.114 3.41001L725.226 -9.6389L747.434 -3.13448L748.143 -5.07031Z" fill="white" fill-opacity="0.3"/>
<path d="M593.654 96.862L593.924 96.5428L595.349 96.3171C587.485 64.9148 591.97 49.7526 593.021 46.8685L592.378 46.9703C591.945 47.039 591.515 46.8629 591.285 46.5221C591.056 46.1816 591.072 45.7425 591.326 45.4055C591.423 45.2768 591.523 45.1659 591.621 45.0403L591.461 45.0658L591.217 45.5863C591.147 45.7356 590.705 46.722 590.203 48.6167L590.954 48.4976L591.271 50.4973L589.705 50.7453C589.265 52.8979 588.856 55.7603 588.667 59.3799L590.564 61.6875L588.808 62.9417L588.566 62.6484C588.474 70.8467 589.523 82.2246 593.334 97.285C593.507 97.0394 593.631 96.8903 593.654 96.862Z" fill="white" fill-opacity="0.3"/>
<path d="M636.708 84.2913C637.302 83.25 637.867 82.231 638.407 81.231C638.177 79.2054 637.92 77.2708 637.642 75.4211C637.611 75.4827 637.583 75.5413 637.552 75.603L635.571 74.7818C636.106 73.7217 636.594 72.7113 637.044 71.7402C635.205 61.3276 632.69 53.9663 630.451 48.9866C629.937 49.0216 629.452 49.0658 629.019 49.1148L628.806 47.1015C629.042 47.0748 629.283 47.0508 629.526 47.0278C628.954 45.8718 628.411 44.8785 627.916 44.0377C627.343 44.0873 626.779 44.1452 626.237 44.2143L625.991 42.2046C626.224 42.1746 626.467 42.1493 626.706 42.1227C625.88 40.9115 625.33 40.3019 625.232 40.1987L624.84 39.779L624.679 39.8044C624.811 39.8936 624.941 39.968 625.073 40.0604C625.418 40.3025 625.569 40.7153 625.456 41.1099C625.344 41.5048 624.989 41.8052 624.555 41.8739L623.915 41.9752C625.811 44.3804 634.749 57.3213 636.979 89.7236L638.404 89.4979L638.759 89.7181C638.791 89.7375 638.954 89.8414 639.194 90.0213C639.078 88.27 638.94 86.5824 638.788 84.9406C638.737 85.029 638.69 85.1156 638.639 85.2047L636.708 84.2913Z" fill="white" fill-opacity="0.3"/>
<path d="M617.265 99.9656C616.916 100.021 616.574 100.007 616.249 99.9472L593.866 103.492C593.421 101.202 594.615 99.1594 595.137 98.4007L615.491 95.1769C615.782 95.0187 616.104 94.8996 616.454 94.8442C616.803 94.7888 617.146 94.8027 617.472 94.8632L637.825 91.6395C638.559 92.2013 640.324 93.7743 640.608 96.089L618.226 99.634C617.935 99.7919 617.614 99.9104 617.265 99.9656ZM638.76 89.718L638.405 89.4979L593.925 96.5428L593.655 96.862C593.631 96.8902 593.508 97.0394 593.334 97.2849C592.555 98.3893 590.733 101.502 592.014 104.994L592.306 105.789L642.802 97.7915L642.834 96.9445C642.973 93.2283 640.277 90.8309 639.195 90.0213C638.955 89.8413 638.792 89.7375 638.76 89.718Z" fill="white" fill-opacity="0.3"/>
<path d="M590.564 61.6875L588.667 59.3799L582.507 51.8854L591.271 50.4973L590.954 48.4976L590.203 48.6166L580.37 50.174C579.988 50.2345 579.663 50.4759 579.516 50.8099C579.368 51.1431 579.419 51.5199 579.65 51.8009L588.566 62.6484L588.808 62.9416L590.564 61.6875Z" fill="white" fill-opacity="0.3"/>
<path d="M641.665 49.9898C638.962 46.9008 633.714 46.6369 629.527 47.0277C629.284 47.0507 629.043 47.0747 628.807 47.1014L629.02 49.1147C629.453 49.0657 629.938 49.0215 630.452 48.9865C633.58 48.7753 637.917 48.969 639.949 51.2911C641.603 53.1808 643.268 58.3101 637.045 71.7402C636.595 72.7112 636.107 73.7217 635.571 74.7817L637.553 75.6029C637.584 75.5413 637.612 75.4826 637.643 75.4211C645.565 59.6692 644.209 52.8961 641.665 49.9898Z" fill="white" fill-opacity="0.3"/>
<path d="M626.707 42.1226C626.467 42.1492 626.224 42.1745 625.991 42.2045L626.237 44.2142C626.779 44.1451 627.343 44.0872 627.916 44.0376C633.266 43.5735 639.782 44.1049 643.555 48.4029C648.791 54.3686 647.109 65.1261 638.408 81.2309C637.867 82.2309 637.302 83.2499 636.708 84.2912L638.639 85.2046C638.69 85.1155 638.738 85.0289 638.788 84.9405C649.284 66.4719 651.406 54.0906 645.269 47.0999C640.65 41.8376 632.77 41.4452 626.707 42.1226Z" fill="white" fill-opacity="0.3"/>
<path d="M607.322 38.1036C607.415 38.1004 607.511 38.0851 607.601 38.0599C607.892 37.9795 614.21 36.292 621.509 40.3066L594.792 44.5382C600.494 38.4647 607.023 38.1176 607.322 38.1036ZM591.286 46.5221C591.515 46.8629 591.945 47.039 592.378 46.9704L593.021 46.8686L623.916 41.9753L624.556 41.8739C624.99 41.8052 625.344 41.5048 625.457 41.1099C625.569 40.7154 625.419 40.3026 625.074 40.0604C624.942 39.968 624.811 39.8936 624.68 39.8044C616.239 34.1014 608.324 35.7845 607.147 36.084C605.934 36.1644 597.886 37.0089 591.621 45.0404C591.523 45.1659 591.423 45.2769 591.326 45.4056C591.072 45.7425 591.057 46.1816 591.286 46.5221Z" fill="white" fill-opacity="0.3"/>
<path d="M716.791 51.348C716.745 51.3554 716.697 51.3621 716.649 51.3688C714.173 51.7248 707.124 52.8286 698.845 54.1399C682.947 56.6579 662.524 59.9381 661.304 60.1347C660.976 60.0516 660.214 59.3672 659.953 58.9156C657.974 55.491 658.643 51.2872 659.291 47.2206C659.359 46.7973 659.426 46.3782 659.489 45.9646C659.58 45.3606 659.668 44.7571 659.756 44.1549C660.335 40.1754 660.883 36.417 662.475 32.7746C663.706 29.9556 665.484 28.0225 668.421 26.311C678.284 20.5619 688.258 16.8519 698.068 15.2839C698.075 15.2828 698.083 15.2816 698.09 15.2804C701.067 14.8089 703.872 15.1975 706.428 16.4361L706.428 16.4357C711.245 18.7704 715.323 24.056 718.896 32.5931C720.587 36.6345 721.928 40.0433 722.517 44.0264C722.557 44.5102 722.899 50.3806 716.791 51.348ZM707.482 14.6331C704.499 13.1878 701.233 12.7328 697.774 13.2807C697.765 13.282 697.756 13.2834 697.748 13.2848C687.648 14.899 677.4 18.7066 667.287 24.6014C663.96 26.5405 661.85 28.839 660.446 32.0551C658.749 35.9388 658.157 40.0027 657.584 43.9334C657.497 44.5318 657.41 45.1316 657.319 45.731C657.256 46.1409 657.19 46.5553 657.124 46.9744C656.457 51.1598 655.701 55.9036 658.015 59.9074C658.309 60.4165 659.865 62.4128 661.568 62.1427C661.57 62.1425 661.571 62.1423 661.573 62.142C661.86 62.0956 681.599 58.9236 697.632 56.3814L697.481 55.4296L699.649 55.0863L699.8 56.0376C705.316 55.1643 710.236 54.3917 713.553 53.8822L713.417 53.0219L715.585 52.6785L715.724 53.5522C716.197 53.4809 716.605 53.4208 716.932 53.3739C716.993 53.3651 717.052 53.3566 717.111 53.3472C723.705 52.3028 724.962 46.6492 724.699 43.7816L724.693 43.7307C724.073 39.5208 722.688 35.9935 720.942 31.8193C717.176 22.8192 712.774 17.1976 707.482 14.6331Z" fill="white" fill-opacity="0.3"/>
<path d="M700.168 28.5322C700.11 28.7629 698.746 33.8536 692.563 34.8328C690.819 35.1092 689.096 35.3893 687.374 35.6694C683.996 36.2179 680.502 36.7859 676.885 37.3161L676.39 37.3904C672.196 38.0224 669.698 37.9956 669.345 35.9899C668.857 33.2158 671.464 31.8159 675.199 30.1415C675.682 29.9251 676.148 29.7159 676.578 29.5092C682.746 26.5489 688.625 24.2708 694.048 22.7383C694.643 22.5703 695.195 22.4462 695.705 22.3653C697.59 22.0668 698.907 22.3634 699.706 23.2602C700.72 24.3981 700.589 26.8108 700.168 28.5322ZM693.457 20.7992C687.903 22.3679 681.898 24.6941 675.608 27.7129C675.195 27.9112 674.748 28.1117 674.284 28.3193C670.952 29.8132 666.389 31.8589 667.182 36.3647C667.946 40.7103 673.634 39.8531 676.689 39.3928L677.174 39.3205C678.989 39.0538 680.771 38.7785 682.522 38.5013C684.278 38.2231 686.004 37.9428 687.7 37.6672C689.419 37.388 691.138 37.1089 692.88 36.8329C700.587 35.6122 702.238 29.2069 702.304 28.9346L702.305 28.9354C702.574 27.8336 703.305 24.0729 701.41 21.9457C699.808 20.1468 697.132 19.7618 693.457 20.7992Z" fill="white" fill-opacity="0.3"/>
<path d="M697.481 55.4296L699.677 69.2931C700.267 69.125 700.678 69.0501 700.732 69.0407C700.796 69.0315 701.22 68.9745 701.845 68.9509L699.8 56.0375L699.649 55.0862L697.481 55.4296Z" fill="white" fill-opacity="0.3"/>
<path d="M706.473 72.1435C707.348 72.9047 707.695 74.0325 707.533 75.5919C706.971 80.9981 706.589 86.431 706.455 88.4565L704.971 88.6915L705.13 89.6914L702.961 90.0348L702.803 89.0349L701.319 89.27C700.566 87.3851 698.524 82.336 696.318 77.3681C695.684 75.9381 695.664 74.7599 696.257 73.7665C697.066 72.4107 698.848 71.6679 699.996 71.3124L699.957 71.0674L699.821 70.2099L701.99 69.8665L702.125 70.724L702.165 70.9733C703.377 70.9591 705.296 71.1187 706.473 72.1435ZM699.676 69.2932C698.212 69.7089 695.611 70.7104 694.351 72.8098C693.419 74.3645 693.398 76.171 694.289 78.1788C697.041 84.3821 699.54 90.7145 699.564 90.7783L699.869 91.5495L707.653 90.3166L708.539 90.1763L708.59 89.3488C708.593 89.2806 709.012 82.4861 709.714 75.7356C709.941 73.5508 709.363 71.8391 707.995 70.6488C706.153 69.0452 703.378 68.8939 701.845 68.951C701.22 68.9745 700.795 69.0315 700.732 69.0408C700.678 69.0501 700.267 69.125 699.676 69.2932Z" fill="white" fill-opacity="0.3"/>
<path d="M701.99 69.8665L699.822 70.2099L702.962 90.0348L705.13 89.6914L704.972 88.6915L702.165 70.9734L702.126 70.724L701.99 69.8665Z" fill="white" fill-opacity="0.3"/>
<path d="M713.416 53.0219L714.416 59.3317C715.007 59.1635 715.418 59.0886 715.472 59.0792C715.535 59.07 715.96 59.0126 716.585 58.9894L715.723 53.5523L715.585 52.6785L713.416 53.0219Z" fill="white" fill-opacity="0.3"/>
<path d="M721.212 62.1817C722.087 62.9433 722.434 64.0711 722.272 65.6296C721.71 71.0365 721.329 76.4695 721.195 78.4946L719.711 78.7296L719.869 79.7295L717.7 80.0729L717.542 79.0731L716.058 79.3081C715.305 77.4236 713.263 72.3744 711.058 67.4057C710.423 65.9762 710.403 64.7983 710.996 63.8046C711.806 62.4492 713.587 61.7064 714.735 61.3509L714.696 61.1055L714.561 60.2484L716.729 59.905L716.865 60.7621L716.904 61.0118C718.116 60.9976 720.035 61.1569 721.212 62.1817ZM714.415 59.3317C712.951 59.7474 710.35 60.7485 709.09 62.8484C708.158 64.4026 708.137 66.2087 709.028 68.2165C711.781 74.4201 714.279 80.753 714.304 80.8163L714.608 81.5876L722.393 80.3546L723.278 80.2145L723.329 79.387C723.333 79.319 723.752 72.5241 724.453 65.7734C724.68 63.5885 724.102 61.8772 722.735 60.6872C720.893 59.0837 718.118 58.932 716.584 58.9895C715.959 59.0126 715.534 59.0701 715.471 59.0793C715.417 59.0887 715.006 59.1635 714.415 59.3317Z" fill="white" fill-opacity="0.3"/>
<path d="M716.73 59.9049L714.561 60.2484L717.701 80.0729L719.87 79.7294L719.711 78.7296L716.905 61.0118L716.866 60.762L716.73 59.9049Z" fill="white" fill-opacity="0.3"/>
<path d="M461.21 -17.075L499.157 -23.0853C500.243 -23.2571 501.255 -22.5817 501.413 -21.5834L506.213 8.72443L508.381 8.38097L503.581 -21.9269C503.249 -24.0268 501.122 -25.4471 498.841 -25.0858L458.725 -18.732L459.991 -10.734L462.16 -11.0774L461.21 -17.075Z" fill="white" fill-opacity="0.3"/>
<path d="M452.796 11.9318L464.923 6.36673L463.599 -1.99043L461.431 -1.64698L462.52 5.22793L450.393 10.7929L451.439 17.3998L453.608 17.0563L452.796 11.9318Z" fill="white" fill-opacity="0.3"/>
<path d="M463.406 15.5044L463.723 17.5042L496.731 12.2761L496.414 10.2764L463.406 15.5044Z" fill="white" fill-opacity="0.3"/>
<path d="M461.758 19.1335L454.128 20.3419L453.924 19.0561L461.554 17.8477L461.758 19.1335ZM453.608 17.0563L451.439 17.3998L452.276 22.6851L464.243 20.7898L463.722 17.5042L463.406 15.5045L453.608 17.0563Z" fill="white" fill-opacity="0.3"/>
<path d="M506.734 12.0099L499.104 13.2185L498.9 11.9327L506.53 10.7241L506.734 12.0099ZM496.415 10.2764L497.252 15.5616L509.219 13.6662L508.382 8.38095L506.214 8.72441L496.415 10.2764Z" fill="white" fill-opacity="0.3"/>
<path d="M460.309 -8.73345L461.114 -3.64667L446.898 -1.39507L447.215 0.604614L461.431 -1.64699L463.599 -1.99045L462.16 -11.0774L459.992 -10.7339L456.779 -10.2251L457.096 -8.22462L460.309 -8.73345Z" fill="white" fill-opacity="0.3"/>
<path d="M445.271 2.36754L438.445 3.44867L438.047 0.930719L436.842 1.12157L436.525 -0.877329L437.73 -1.06818L437.272 -3.95958L436.067 -3.76872L435.751 -5.76522L436.956 -5.95607L436.557 -8.47364L443.383 -9.55476L443.607 -8.13888L443.782 -7.0372L444.907 -7.21535L445.223 -5.21885L444.098 -5.0407L444.556 -2.14931L445.681 -2.32746L445.997 -0.328559L444.873 -0.150409L445.047 0.948083L445.271 2.36754ZM447.215 0.604626L445.235 -11.8987L434.072 -10.1307L436.594 5.79224L447.757 4.02419L447.215 0.604626Z" fill="white" fill-opacity="0.3"/>
<path d="M445.997 -0.328551L445.68 -2.32745L436.524 -0.877321L436.841 1.12158L438.046 0.930726L444.872 -0.150401L445.997 -0.328551Z" fill="white" fill-opacity="0.3"/>
<path d="M772.304 87.4843L772.621 89.4836L801.563 84.8998L801.246 82.9005L772.304 87.4843Z" fill="white" fill-opacity="0.3"/>
<path d="M755.35 92.2191L761.485 91.2474L761.168 89.248L757.201 89.8763L756.29 84.1242L755.206 84.296L754.889 82.2963L755.974 82.1245L749.211 39.4235L748.126 39.5953L747.809 37.5956L748.894 37.4238L747.205 26.7591L806.352 17.3911L808.041 28.0558L809.125 27.8841L809.442 29.8838L808.358 30.0555L815.121 72.7565L816.205 72.5848L816.522 74.5845L815.437 74.7562L816.349 80.5084L812.382 81.1367L812.698 83.136L818.834 82.1642L808.203 15.0479L744.719 25.1028L755.35 92.2191Z" fill="white" fill-opacity="0.3"/>
<path d="M769.067 81.0757L771.235 80.7323L771.394 81.7322L816.522 74.5845L816.205 72.5848L815.121 72.7565L755.974 82.1245L754.889 82.2963L755.206 84.296L756.291 84.1242L769.225 82.0756L769.067 81.0757Z" fill="white" fill-opacity="0.3"/>
<path d="M804.039 25.8224L789.26 28.1632L788.449 23.0431L803.228 20.7022L804.039 25.8224ZM785.964 21.3867L787.408 30.5063L806.525 27.4786L805.08 18.359L785.964 21.3867Z" fill="white" fill-opacity="0.3"/>
<path d="M783.679 65.6402C778.526 66.4563 773.723 63.2552 772.97 58.5045C772.218 53.7534 775.797 49.2245 780.949 48.4085C786.101 47.5925 790.905 50.7936 791.657 55.5447C792.41 60.2954 788.83 64.8243 783.679 65.6402ZM780.633 46.4084C774.284 47.4138 769.875 52.9943 770.802 58.8479C771.729 64.701 777.647 68.6454 783.995 67.64C790.343 66.6346 794.753 61.0544 793.826 55.2012C792.899 49.3477 786.98 45.403 780.633 46.4084Z" fill="white" fill-opacity="0.3"/>
<path d="M784.339 69.8063C776.695 71.0169 769.569 66.2679 768.453 59.22C767.336 52.1717 772.646 45.4526 780.29 44.242C787.933 43.0314 795.059 47.7808 796.175 54.8291C797.292 61.877 791.982 68.5957 784.339 69.8063ZM779.973 42.2423C771.134 43.6422 764.994 51.4122 766.285 59.5634C767.576 67.7137 775.817 73.2063 784.656 71.8064C793.494 70.4065 799.634 62.6361 798.344 54.4857C797.053 46.3346 788.811 40.8424 779.973 42.2423Z" fill="white" fill-opacity="0.3"/>
<path d="M771.235 80.7323L769.067 81.0756L770.137 87.8276L772.305 87.4843L771.394 81.7321L771.235 80.7323Z" fill="white" fill-opacity="0.3"/>
<path d="M770.81 92.0809L764.011 93.1578L763.654 90.9039L770.453 89.827L770.81 92.0809ZM772.305 87.4843L761.169 89.2481L762.159 95.5013L773.295 93.7376L772.621 89.4836L772.463 88.4838L772.305 87.4843Z" fill="white" fill-opacity="0.3"/>
<path d="M810.887 85.7333L804.088 86.8102L803.731 84.5563L810.53 83.4795L810.887 85.7333ZM801.246 82.9004L802.236 89.1537L813.372 87.3899L812.382 81.1367L801.246 82.9004Z" fill="white" fill-opacity="0.3"/>
<path d="M809.442 29.8838L809.125 27.8841L747.809 37.5956L748.126 39.5953L749.211 39.4235L808.358 30.0556L809.442 29.8838Z" fill="white" fill-opacity="0.3"/>
<path d="M632.075 -83.0433L647.237 12.685L620.493 16.9209L620.81 18.9207L649.723 14.3413L633.928 -85.3832L605.015 -80.8038L605.331 -78.8073L632.075 -83.0433Z" fill="white" fill-opacity="0.3"/>
<path d="M594.47 21.0424L579.309 -74.6859L603.162 -78.4639L618.324 17.2644L594.47 21.0424ZM620.809 18.9207L605.014 -80.8038L576.824 -76.339L592.619 23.3855L618.641 19.2641L620.809 18.9207Z" fill="white" fill-opacity="0.3"/>
<path d="M880.363 87.8936L912.076 109.447L914.638 109.041L914.955 111.041L914.523 111.109L916.188 112.241L841.511 124.069L839.953 122.92L837.714 123.274L837.397 121.275L837.666 121.232L831.499 116.682C829.103 114.913 827.916 111.1 828.908 108.355L835.173 91.0255C836.162 88.2902 839.606 85.8865 842.705 85.7732L869.401 84.8097C872.707 84.6909 877.728 86.103 880.363 87.8936ZM833.097 90.4261L826.832 107.755C825.534 111.344 826.973 115.968 830.108 118.281L840.493 125.944C840.732 126.12 841.042 126.192 841.348 126.144L919.088 113.831C919.524 113.762 919.882 113.458 919.992 113.059C920.101 112.662 919.947 112.247 919.595 112.008L881.69 86.2476C878.628 84.1653 873.214 82.6439 869.368 82.7831L842.671 83.7466C838.6 83.8899 834.398 86.8268 833.097 90.4261Z" fill="white" fill-opacity="0.3"/>
<path d="M840.821 96.7662L838.007 104.555C837.349 106.375 837.528 107.964 838.511 109.032C839.542 110.152 841.325 110.575 843.532 110.226C843.536 110.225 843.536 110.225 843.541 110.225L862.461 107.228C861.862 107.323 861.303 106.952 861.216 106.4L861.058 105.4L843.224 108.225C843.219 108.226 843.219 108.226 843.215 108.226C841.813 108.448 840.71 108.255 840.193 107.693C839.717 107.176 839.678 106.276 840.084 105.155L842.901 97.3654C843.817 94.8289 846.815 92.572 849.722 92.1116C849.998 92.0679 850.276 92.0401 850.549 92.0303L864.145 91.5394C867.5 91.4191 872.598 92.8514 875.269 94.669L882.701 99.7199C883.934 100.558 884.11 101.11 884.077 101.237C884.038 101.377 883.549 101.837 881.876 102.103L876.256 102.993L876.414 103.993C876.502 104.545 876.085 105.07 875.49 105.164L882.192 104.103L882.197 104.102C885.082 103.643 885.964 102.54 886.197 101.695C886.429 100.87 886.236 99.5733 884.027 98.0739L876.596 93.0231C873.544 90.9494 867.945 89.3745 864.112 89.5128L850.519 90.003C846.471 90.1481 842.119 93.1828 840.821 96.7662Z" fill="white" fill-opacity="0.3"/>
<path d="M427.933 47.7389L554.394 27.7095L564.4 90.8856L437.939 110.915L427.933 47.7389ZM473.826 105.76L476.278 105.372L476.554 107.116L526.501 99.2055L526.225 97.4608L528.676 97.0725L528.953 98.8173L567.209 92.758L556.487 25.0606L425.123 45.8666L435.846 113.564L474.102 107.505L473.826 105.76Z" fill="white" fill-opacity="0.3"/>
<path d="M431.922 50.3635L551.413 31.438L560.182 86.8058L440.691 105.731L431.922 50.3635ZM438.598 108.38L562.992 88.6782L553.506 28.7891L429.112 48.4912L438.598 108.38Z" fill="white" fill-opacity="0.3"/>
<path d="M810.237 -15.69C811.094 -14.941 811.432 -13.825 811.272 -12.2789C810.709 -6.85708 810.323 -1.40916 810.181 0.721867L808.894 0.925774L809.073 2.05608L806.621 2.44441L806.442 1.31411L805.155 1.51801C804.361 -0.464856 802.311 -5.52704 800.1 -10.5094C799.469 -11.9302 799.446 -13.0959 800.03 -14.0734C800.801 -15.3661 802.477 -16.1031 803.625 -16.4745L803.564 -16.8551L803.426 -17.7273L805.878 -18.1156L806.016 -17.2434L806.077 -16.8608C807.292 -16.863 809.107 -16.6786 810.237 -15.69ZM803.263 -18.7589C801.737 -18.3118 799.147 -17.2745 797.875 -15.1545C796.906 -13.5407 796.883 -11.6694 797.804 -9.59304C800.605 -3.28312 803.146 3.15866 803.171 3.22315L803.515 4.09502L812.537 2.66607L812.594 1.73073C812.599 1.66153 813.025 -5.24829 813.738 -12.1166C813.973 -14.3762 813.372 -16.1487 811.952 -17.3841C810.092 -19.0032 807.317 -19.1928 805.715 -19.1461C805.007 -19.1254 804.526 -19.0593 804.456 -19.0491C804.397 -19.0389 803.931 -18.9548 803.263 -18.7589Z" fill="white" fill-opacity="0.3"/>
<path d="M805.878 -18.1156L803.426 -17.7272L806.621 2.44446L809.073 2.05612L808.894 0.925822L806.077 -16.8608L806.016 -17.2434L805.878 -18.1156Z" fill="white" fill-opacity="0.3"/>
<path d="M551.241 -12.5459L554.61 8.729L555.613 8.04425L556.779 8.38555L553.451 -12.6269L553.409 -12.8894L551.241 -12.5459Z" fill="white" fill-opacity="0.3"/>
<path d="M554.61 8.72895L535.585 21.7184L536.857 23.341L555.969 10.2917L578.178 16.7965L578.886 14.8603L556.779 8.38549L555.613 8.0442L554.61 8.72895Z" fill="white" fill-opacity="0.3"/>
</g>
<g opacity="0.4" clip-path="url(#clip3_2_1968)">
<path d="M1431.27 -1.10535L1429.64 -3.1265L1428.66 -2.43677L1427.36 -4.04141L1428.34 -4.73153L1426.47 -7.04913L1425.48 -6.35902L1424.19 -7.96406L1425.17 -8.6538L1423.53 -10.6749L1429.1 -14.5829L1430.73 -12.5622L1431.64 -13.2057L1432.94 -11.6011L1432.03 -10.9575L1433.9 -8.63884L1434.82 -9.28304L1436.11 -7.6788L1435.2 -7.0342L1436.83 -5.01306L1431.27 -1.10535ZM1433.08 -13.0803L1431.78 -14.6849L1429.57 -17.4295L1420.47 -11.0381L1430.8 1.74108L1439.89 -4.64992L1437.68 -7.39449L1436.38 -8.99912L1433.08 -13.0803Z" fill="white" fill-opacity="0.3"/>
<path d="M1449.94 96.3509L1450.36 96.4394L1451.14 97.5422C1453.45 95.8475 1455.68 94.285 1457.84 92.8237L1457.49 90.5754C1454.9 92.3061 1452.21 94.201 1449.4 96.2662C1449.71 96.3046 1449.9 96.3439 1449.94 96.3509Z" fill="white" fill-opacity="0.3"/>
<path d="M1366.95 35.6699L1365.81 35.8015L1373.55 84.6786L1374.68 84.4489C1384.92 82.3674 1395.25 80.4429 1405.61 78.6619L1405.44 77.6346L1407.61 77.291L1407.77 78.2833C1415.43 76.9819 1423.12 75.7646 1430.81 74.6336L1430.66 73.6413L1432.83 73.2977L1432.99 74.325C1440.14 73.2883 1447.3 72.3231 1454.45 71.4374L1454.14 69.4393C1427.79 72.7017 1401.36 76.9913 1375.39 82.2394L1368.31 37.5518C1394.63 34.4967 1421.09 30.4056 1447.16 25.3845L1446.84 23.386C1420.43 28.4756 1393.61 32.6059 1366.95 35.6699Z" fill="white" fill-opacity="0.3"/>
<path d="M1431.44 78.574L1431.28 77.5746L1408.23 81.2243L1408.39 82.2238L1406.22 82.5674L1406.06 81.5679L1398.75 82.7258L1399.07 84.7255L1441.07 78.0729L1440.76 76.0732L1433.45 77.231L1433.61 78.2304L1431.44 78.574Z" fill="white" fill-opacity="0.3"/>
<path d="M1408.39 82.2238L1407.61 77.2909L1405.44 77.6345L1406.22 82.5674L1408.39 82.2238Z" fill="white" fill-opacity="0.3"/>
<path d="M1430.66 73.6412L1431.44 78.5741L1433.61 78.2305L1432.82 73.2977L1430.66 73.6412Z" fill="white" fill-opacity="0.3"/>
<path d="M910.799 -11.4475L911.909 -4.44452L922.513 16.453L915.707 19.5353L916.037 21.6221L925.423 17.3713L910.799 -11.4475Z" fill="white" fill-opacity="0.3"/>
<path d="M917.189 14.6401C917.311 14.5849 917.456 14.6305 917.512 14.7418C917.569 14.8531 917.516 14.9883 917.394 15.0435C917.272 15.0982 917.128 15.0526 917.071 14.9417C917.015 14.83 917.068 14.6952 917.189 14.6401ZM918.317 16.8616C919.535 16.3103 920.065 14.9555 919.5 13.8416C918.935 12.7276 917.485 12.2703 916.267 12.8215C915.528 13.1562 915.048 13.7868 914.906 14.4795L915.134 15.9188C915.728 16.9728 917.13 17.399 918.317 16.8616Z" fill="white" fill-opacity="0.3"/>
<path d="M934.192 86.1343L930.868 82.0217L938.899 71.9032L933.478 65.1962L931.712 66.4377L936.171 71.9553L928.14 82.0733L932.426 87.3758L942.174 80.5246L943.471 82.1293L970.359 63.2316L969.062 61.6268L934.192 86.1343Z" fill="white" fill-opacity="0.3"/>
<path d="M927.586 57.9056L931.1 62.2543L923.694 53.0914L954.606 31.366C955.49 30.7445 956.738 30.8923 957.386 31.6954L977.044 56.0172L970.544 60.5854L978.81 54.7757L959.153 30.4539C957.789 28.766 955.167 28.4551 953.309 29.7609L920.931 52.5173L921.045 53.2407L925.819 59.1471L927.586 57.9056Z" fill="white" fill-opacity="0.3"/>
<path d="M936.323 88.7706L935.489 87.7391L941.704 83.3709L942.538 84.4032L936.323 88.7706ZM932.426 87.3759L935.854 91.6172L945.602 84.7664L943.471 82.1294L942.174 80.5247L932.426 87.3759Z" fill="white" fill-opacity="0.3"/>
<path d="M973.522 61.0095L978.341 57.6219L979.175 58.6537L972.96 63.022L972.126 61.9902L973.522 61.0095ZM969.063 61.6269L970.359 63.2317L972.49 65.8682L982.239 59.0173L978.81 54.7757L970.544 60.5854L969.063 61.6269Z" fill="white" fill-opacity="0.3"/>
<path d="M933.478 65.1963L931.101 62.2542L927.586 57.9056L925.82 59.1471L923.203 60.9861L924.5 62.5912L927.117 60.7518L930.415 64.833L923.636 69.5971L923.995 71.8617L931.712 66.4378L933.478 65.1963Z" fill="white" fill-opacity="0.3"/>
<path d="M924.499 62.5912L923.202 60.9861L922.045 59.5552L922.724 63.8386L924.499 62.5912Z" fill="white" fill-opacity="0.3"/>
<path d="M932.128 35.0946C930.605 33.2101 927.677 32.8632 925.603 34.3211L918.805 39.0988L919.164 41.3634L926.9 35.9258C928.001 35.1521 929.553 35.3364 930.361 36.3361L931.058 37.1981L919.762 45.1373L920.12 47.4015L934.121 37.5613L932.128 35.0946Z" fill="white" fill-opacity="0.3"/>
<path d="M958.282 46.5757L959.165 45.9552L957.48 43.8697L959.705 42.3062L961.39 44.3916L962.273 43.7711L963.57 45.3758L962.687 45.9967L964.372 48.0818L962.148 49.645L960.463 47.5599L959.579 48.1808L958.282 46.5757ZM967.436 48.445L960.174 39.4599L954.416 43.5061L961.678 52.4912L967.436 48.445Z" fill="white" fill-opacity="0.3"/>
<path d="M962.687 45.9967L963.57 45.3757L962.273 43.771L961.389 44.3916L959.165 45.9551L958.282 46.5757L959.579 48.1808L960.462 47.5598L962.687 45.9967Z" fill="white" fill-opacity="0.3"/>
<path d="M1057.59 124.205C1057.73 126.374 1056.09 128.286 1053.78 128.652L997.865 137.508C995.552 137.875 993.402 136.563 992.865 134.457C985.469 105.466 991.229 84.4125 994.048 76.7066C994.589 75.2278 995.959 74.1457 997.625 73.8819L1034.35 68.0658C1036.01 67.8021 1037.65 68.4078 1038.62 69.647C1043.68 76.1049 1055.67 94.3485 1057.59 124.205ZM1040.41 68.4286C1038.95 66.578 1036.51 65.6734 1034.03 66.0665L997.308 71.8825C994.826 72.2757 992.782 73.8914 991.975 76.0993C989.094 83.9724 983.205 105.469 990.731 134.97C991.53 138.103 994.734 140.054 998.182 139.508L1054.1 130.652C1057.54 130.106 1059.99 127.26 1059.78 124.034C1057.82 93.6523 1045.58 75.0266 1040.41 68.4286Z" fill="white" fill-opacity="0.3"/>
<path d="M1043.5 94.1295L1045.3 93.8435L1045.62 95.8429L1044.62 96.0004C1045.19 97.0525 1045.68 98.1543 1046.07 99.3013L1047.56 99.0649L1047.88 101.065L1046.64 101.262C1046.77 101.823 1046.89 102.392 1046.99 102.971C1047.08 103.551 1047.14 104.128 1047.18 104.705L1048.35 104.519L1048.67 106.519L1047.25 106.744C1047.23 107.956 1047.11 109.154 1046.89 110.329L1047.89 110.172L1048.21 112.171L1046.4 112.457C1046.03 113.75 1045.54 115.006 1044.95 116.216L1045.81 116.079L1046.13 118.079L1043.71 118.463C1042.8 119.899 1041.75 121.251 1040.55 122.493L1041.04 122.416L1041.35 124.416L1037.78 124.982C1034.59 127.454 1030.74 129.258 1026.46 130.109L1026.62 131.134L1024.46 131.477L1024.29 130.452C1019.96 130.966 1015.75 130.439 1011.95 129.073L1008.54 129.613L1008.22 127.614L1008.54 127.563C1007.02 126.752 1005.6 125.792 1004.3 124.705L1002.03 125.063L1001.72 123.064L1002.42 122.953C1001.48 121.984 1000.63 120.941 999.878 119.826L998.236 120.086L997.92 118.086L998.75 117.955C998.183 116.903 997.698 115.801 997.305 114.654L996.051 114.853L995.734 112.853L996.739 112.694C996.604 112.132 996.482 111.564 996.39 110.985C996.298 110.405 996.238 109.827 996.194 109.251L995.115 109.422L994.799 107.422L996.127 107.212C996.146 105.999 996.267 104.802 996.481 103.626L995.65 103.757L995.334 101.758L996.975 101.498C997.344 100.205 997.833 98.9498 998.423 97.7392L997.933 97.8168L997.616 95.8167L999.67 95.4914C1000.57 94.0558 1001.63 92.7044 1002.82 91.4631L1002.5 91.5138L1002.19 89.5141L1005.6 88.9735C1008.79 86.5008 1012.63 84.6971 1016.91 83.8463L1016.75 82.821L1018.92 82.4775L1019.08 83.5029C1023.41 82.9893 1027.63 83.5162 1031.43 84.883L1035 84.3165L1035.32 86.3162L1034.84 86.3928C1036.36 87.2038 1037.78 88.1631 1039.08 89.2498L1041.3 88.8985L1041.61 90.8986L1040.96 91.0021C1041.89 91.9712 1042.75 93.0139 1043.5 94.1295ZM1017.68 81.6493C1002.53 84.0481 992.01 97.3618 994.222 111.328C996.434 125.294 1010.55 134.704 1025.7 132.305C1040.84 129.907 1051.37 116.593 1049.15 102.628C1046.94 88.6615 1032.82 79.2507 1017.68 81.6493Z" fill="white" fill-opacity="0.3"/>
<path d="M1000.08 76.7653C1002.32 76.4109 1004.41 77.801 1004.73 79.8643C1005.06 81.9269 1003.51 83.8939 1001.27 84.2482C1000.71 84.336 1000.17 84.3154 999.658 84.2056L999.586 84.324L997.686 83.3582L997.764 83.2287C997.172 82.6866 996.749 81.9765 996.618 81.1496C996.291 79.0863 997.846 77.1196 1000.08 76.7653ZM1001.58 86.248C1005.02 85.7042 1007.4 82.6863 1006.9 79.5208C1006.4 76.355 1003.2 74.2218 999.766 74.7656C996.333 75.3093 993.949 78.3272 994.45 81.493C994.951 84.6584 998.152 86.7917 1001.58 86.248Z" fill="white" fill-opacity="0.3"/>
<path d="M1034.08 79.0505C1031.85 79.4049 1029.76 78.0144 1029.43 75.9518C1029.35 75.3962 1029.4 74.851 1029.57 74.3395L1028.5 73.7516L1029.65 72.0011L1030.72 72.5853C1031.3 72.07 1032.05 71.7019 1032.9 71.5676C1035.14 71.2132 1037.22 72.6033 1037.55 74.6666C1037.88 76.7292 1036.32 78.6962 1034.08 79.0505ZM1032.58 69.5679C1029.15 70.1115 1026.76 73.1296 1027.27 76.2954C1027.77 79.4608 1030.97 81.5939 1034.4 81.0503C1037.83 80.5065 1040.22 77.4886 1039.72 74.3231C1039.22 71.1573 1036.02 69.0241 1032.58 69.5679Z" fill="white" fill-opacity="0.3"/>
<path d="M999.725 80.0238L997.764 83.2287L997.685 83.3582L999.585 84.3239L999.658 84.2056L1001.63 80.99L999.725 80.0238Z" fill="white" fill-opacity="0.3"/>
<path d="M1034.07 74.4337L1030.72 72.5853L1029.65 72.0011L1028.5 73.7516L1029.57 74.3394L1032.91 76.1843L1034.07 74.4337Z" fill="white" fill-opacity="0.3"/>
<path d="M1019.6 86.7565L1018.92 82.4775L1016.75 82.821L1017.43 87.1L1019.6 86.7565Z" fill="white" fill-opacity="0.3"/>
<path d="M1017.74 89.0997L1018.29 92.5424L1020.46 92.1989L1019.91 88.7563L1017.74 89.0997Z" fill="white" fill-opacity="0.3"/>
<path d="M1019.91 88.7563L1035.32 86.3162L1035 84.3165L1002.19 89.5141L1002.5 91.5138L1002.82 91.4631L1017.74 89.0998L1019.91 88.7563Z" fill="white" fill-opacity="0.3"/>
<path d="M1041.3 88.8984L997.616 95.8167L997.933 97.8168L1041.61 90.8985L1041.3 88.8984Z" fill="white" fill-opacity="0.3"/>
<path d="M1108.65 0.862024L1108.92 0.542838L1110.35 0.317145C1102.48 -31.0852 1106.97 -46.2474 1108.02 -49.1315L1107.38 -49.0297C1106.94 -48.961 1106.51 -49.1371 1106.29 -49.4779C1106.06 -49.8184 1106.07 -50.2575 1106.33 -50.5945C1106.42 -50.7232 1106.52 -50.8341 1106.62 -50.9597L1106.46 -50.9342L1106.22 -50.4137C1106.15 -50.2644 1105.71 -49.278 1105.2 -47.3833L1105.95 -47.5024L1106.27 -45.5027L1104.71 -45.2547C1104.27 -43.1021 1103.86 -40.2397 1103.67 -36.6201L1105.56 -34.3125L1103.81 -33.0583L1103.57 -33.3516C1103.47 -25.1533 1104.52 -13.7754 1108.33 1.28497C1108.51 1.03941 1108.63 0.890258 1108.65 0.862024Z" fill="white" fill-opacity="0.3"/>
<path d="M1132.26 3.96562C1131.92 4.02095 1131.57 4.00737 1131.25 3.94717L1108.87 7.49228C1108.42 5.20182 1109.61 3.15938 1110.14 2.40072L1130.49 -0.823127C1130.78 -0.98134 1131.1 -1.10035 1131.45 -1.15575C1131.8 -1.21115 1132.15 -1.19726 1132.47 -1.1368L1152.83 -4.36051C1153.56 -3.79871 1155.32 -2.22567 1155.61 0.0890089L1133.23 3.63405C1132.93 3.79186 1132.61 3.91036 1132.26 3.96562ZM1153.76 -6.28197L1153.4 -6.50211L1108.92 0.542809L1108.65 0.861994C1108.63 0.890229 1108.51 1.03938 1108.33 1.28494C1107.56 2.38925 1105.73 5.50243 1107.01 8.99362L1107.31 9.78928L1157.8 1.79145L1157.83 0.944488C1157.97 -2.77171 1155.28 -5.16914 1154.2 -5.9787C1153.95 -6.15869 1153.79 -6.26255 1153.76 -6.28197Z" fill="white" fill-opacity="0.3"/>
<path d="M1132.47 1.30867C1132.52 1.61809 1132.28 1.9131 1131.95 1.96624C1131.61 2.01939 1131.3 1.81086 1131.25 1.50144C1131.2 1.19201 1131.43 0.897027 1131.77 0.843882C1132.11 0.790738 1132.42 0.999247 1132.47 1.30867ZM1134.64 0.965209C1134.46 -0.124131 1133.57 -0.932824 1132.47 -1.13687C1132.15 -1.19733 1131.8 -1.21122 1131.45 -1.15582C1131.1 -1.10042 1130.78 -0.981405 1130.49 -0.823193C1129.51 -0.289011 1128.91 0.755555 1129.08 1.8449C1129.25 2.93503 1130.15 3.7432 1131.25 3.94711C1131.57 4.00731 1131.92 4.02088 1132.26 3.96555C1132.61 3.91029 1132.93 3.79179 1133.23 3.63398C1134.21 3.09973 1134.81 2.05534 1134.64 0.965209Z" fill="white" fill-opacity="0.3"/>
<path d="M1240.82 53.09C1240.37 51.013 1238.69 49.4164 1236.64 48.8268L1236.86 50.2371L1234.24 50.6531C1236.26 50.332 1238.25 51.6273 1238.67 53.5403L1241.29 65.5057L1188.75 73.8269L1187.54 61.6383C1187.35 59.6896 1188.84 57.8429 1190.87 57.5219L1188.24 57.9379L1188.02 56.5276C1186.25 57.7228 1185.15 59.7582 1185.36 61.8739L1186.78 76.1891L1243.89 67.143L1240.82 53.09Z" fill="white" fill-opacity="0.3"/>
<path d="M1190.87 57.5219L1236.86 50.237L1234.93 38.0121L1232.76 38.3556L1234.38 48.5805L1233.92 48.6529L1190.55 55.5218L1190.09 55.5942L1188.47 45.3694L1186.31 45.7129L1188.02 56.5276L1188.24 57.9379L1190.87 57.5219Z" fill="white" fill-opacity="0.3"/>
<path d="M1187.61 16.0204L1224.51 10.1753C1226.17 9.91277 1227.74 10.7024 1228.42 12.0184L1230.65 11.6658C1229.74 9.24507 1227.06 7.72267 1224.2 8.17556L1187.29 14.0207C1184.43 14.4735 1182.35 16.7509 1182.24 19.3334L1184.46 18.9808C1184.71 17.5176 1185.95 16.2829 1187.61 16.0204Z" fill="white" fill-opacity="0.3"/>
<path d="M1184.57 43.7978L1184.89 45.7975L1186.28 45.5765L1185.97 43.5768L1184.57 43.7978Z" fill="white" fill-opacity="0.3"/>
<path d="M1236.3 37.6547L1235.98 35.655L1234.59 35.876L1234.91 37.8757L1236.3 37.6547Z" fill="white" fill-opacity="0.3"/>
<path d="M1188.16 43.3701L1232.44 36.3563L1232.42 36.2195L1188.14 43.2333L1188.16 43.3701Z" fill="white" fill-opacity="0.3"/>
<path d="M1232.76 38.3556L1234.93 38.0121L1233.01 25.8989L1230.84 26.2424L1232.42 36.2195L1232.44 36.3563L1188.16 43.3701L1188.14 43.2332L1186.56 33.2562L1184.39 33.5997L1185.97 43.5768L1186.28 45.5765L1186.31 45.7129L1188.47 45.3694L1232.76 38.3556Z" fill="white" fill-opacity="0.3"/>
<path d="M1182.65 31.6837L1182.97 33.6838L1184.37 33.4629L1184.05 31.4627L1182.65 31.6837Z" fill="white" fill-opacity="0.3"/>
<path d="M1234.38 25.541L1234.07 23.5409L1232.67 23.762L1232.99 25.7621L1234.38 25.541Z" fill="white" fill-opacity="0.3"/>
<path d="M1186.24 31.2565L1230.52 24.2427L1230.5 24.1055L1186.22 31.1193L1186.24 31.2565Z" fill="white" fill-opacity="0.3"/>
<path d="M1230.84 26.2424L1233.01 25.8989L1231.07 13.6489L1228.9 13.9924L1230.5 24.1055L1230.52 24.2427L1186.24 31.2565L1186.22 31.1193L1184.62 21.0062L1182.45 21.3497L1184.05 31.4628L1184.37 33.4629L1184.39 33.5997L1186.56 33.2562L1230.84 26.2424Z" fill="white" fill-opacity="0.3"/>
<path d="M1228.9 13.9924L1232.46 13.4278L1232.15 11.4281L1180.74 19.571L1181.05 21.5707L1182.45 21.3497L1184.62 21.0062L1228.9 13.9924Z" fill="white" fill-opacity="0.3"/>
<path d="M1227.51 56.6122L1228.68 57.0473C1229.28 56.3478 1230.15 55.8328 1231.17 55.6713C1233.34 55.3276 1235.36 56.6762 1235.68 58.6771C1235.99 60.678 1234.49 62.5855 1232.32 62.9291C1230.15 63.2728 1228.12 61.9245 1227.81 59.9236C1227.75 59.5868 1227.77 59.2566 1227.81 58.9319L1226.65 58.4955L1227.51 56.6122ZM1232.63 64.9289C1236 64.3958 1238.34 61.4375 1237.85 58.3337C1237.35 55.2299 1234.22 53.1389 1230.85 53.6719C1227.48 54.205 1225.15 57.1634 1225.64 60.2672C1226.13 63.3709 1229.27 65.4619 1232.63 64.9289Z" fill="white" fill-opacity="0.3"/>
<path d="M1231.31 60.2421L1232.17 58.3585L1228.68 57.0472L1227.51 56.6121L1226.65 58.4954L1227.81 58.9318L1231.31 60.2421Z" fill="white" fill-opacity="0.3"/>
<path d="M1395.36 -8.10641L1427.08 13.4465L1429.64 13.0408L1429.95 15.0405L1429.52 15.1088L1431.19 16.2411L1356.51 28.0688L1354.95 26.9196L1352.71 27.2742L1352.4 25.2745L1352.67 25.232L1346.5 20.6824C1344.1 18.9134 1342.92 15.1 1343.91 12.3552L1350.17 -4.97451C1351.16 -7.7098 1354.61 -10.1135 1357.7 -10.2268L1384.4 -11.1903C1387.71 -11.3091 1392.73 -9.89703 1395.36 -8.10641ZM1348.1 -5.57395L1341.83 11.7553C1340.53 15.3443 1341.97 19.9679 1345.11 22.2808L1355.49 29.9439C1355.73 30.1202 1356.04 30.1925 1356.35 30.1441L1434.09 17.8312C1434.52 17.7622 1434.88 17.458 1434.99 17.0595C1435.1 16.6621 1434.95 16.2471 1434.6 16.0084L1396.69 -9.75239C1393.63 -11.8347 1388.21 -13.3561 1384.37 -13.2169L1357.67 -12.2534C1353.6 -12.1101 1349.4 -9.17321 1348.1 -5.57395Z" fill="white" fill-opacity="0.3"/>
<path d="M1355.82 0.766163L1353.01 8.55483C1352.35 10.3749 1352.53 11.9643 1353.51 13.0321C1354.54 14.1518 1356.33 14.5755 1358.53 14.226C1358.54 14.2253 1358.54 14.2253 1358.54 14.2246L1377.46 11.2279C1376.86 11.3229 1376.3 10.9518 1376.22 10.4002L1376.06 9.40036L1358.22 12.2249C1358.22 12.2256 1358.22 12.2256 1358.22 12.2263C1356.81 12.4483 1355.71 12.2549 1355.19 11.6934C1354.72 11.1765 1354.68 10.2755 1355.08 9.155L1357.9 1.36544C1358.82 -1.17111 1361.81 -3.42799 1364.72 -3.8884C1365 -3.93212 1365.28 -3.95992 1365.55 -3.96966L1379.15 -4.46058C1382.5 -4.58088 1387.6 -3.14861 1390.27 -1.33096L1397.7 3.7199C1398.93 4.55762 1399.11 5.1103 1399.08 5.23742C1399.04 5.37743 1398.55 5.83724 1396.88 6.10308L1391.26 6.99314L1391.41 7.99298C1391.5 8.54461 1391.09 9.07004 1390.49 9.1643L1397.19 8.10278L1397.2 8.1021C1400.08 7.64312 1400.96 6.53967 1401.2 5.6947C1401.43 4.86991 1401.24 3.57329 1399.03 2.07392L1391.6 -2.97692C1388.54 -5.0506 1382.94 -6.62547 1379.11 -6.48719L1365.52 -5.99696C1361.47 -5.85185 1357.12 -2.81717 1355.82 0.766163Z" fill="white" fill-opacity="0.3"/>
<path d="M1352.4 25.2745L1352.71 27.2742L1429.95 15.0404L1429.64 13.0407L1427.08 13.4465L1352.67 25.2319L1352.4 25.2745Z" fill="white" fill-opacity="0.3"/>
<path d="M1378.23 9.05673L1378.02 7.76892L1388.88 6.0489L1389.09 7.33671L1378.23 9.05673ZM1391.42 7.99295L1390.89 4.70546C1390.81 4.15303 1390.25 3.7824 1389.65 3.87667L1376.62 5.94028C1376.02 6.03523 1375.61 6.56025 1375.7 7.11267L1376.06 9.40032L1376.22 10.4002C1376.3 10.9518 1376.86 11.3228 1377.46 11.2279L1390.49 9.16427C1391.09 9.07 1391.5 8.54458 1391.42 7.99295Z" fill="white" fill-opacity="0.3"/>
<path d="M1332.02 31.5745L1330.8 31.7687L1338.79 82.22L1340.01 82.0258L1340.37 84.286L1339.14 84.4802L1339.8 88.6279L1279.74 98.1406L1279.08 93.9928L1277.86 94.187L1277.5 91.9268L1278.73 91.7326L1270.74 41.2813L1269.51 41.4755L1269.15 39.2149L1270.38 39.0207L1269.27 32.015L1329.33 22.5023L1330.44 29.5081L1331.66 29.3139L1332.02 31.5745ZM1331.42 19.8535L1266.46 30.1427L1277.65 100.79L1342.61 90.5007L1331.42 19.8535Z" fill="white" fill-opacity="0.3"/>
<path d="M1277.5 91.9268L1277.86 94.187L1340.37 84.286L1340.01 82.0258L1338.79 82.22L1278.73 91.7326L1277.5 91.9268Z" fill="white" fill-opacity="0.3"/>
<path d="M1270.38 39.0208L1269.15 39.215L1269.51 41.4756L1332.02 31.5746L1331.66 29.314L1330.44 29.5081L1270.38 39.0208Z" fill="white" fill-opacity="0.3"/>
<path d="M1280.03 50.0256L1324.65 42.9587L1330.41 79.3229L1285.79 86.3898L1280.03 50.0256ZM1283.7 89.0391L1333.22 81.1956L1326.75 40.3098L1277.23 48.1532L1283.7 89.0391Z" fill="white" fill-opacity="0.3"/>
<path d="M1327.89 37.167L1327.53 34.9064L1274.81 43.256L1275.17 45.5166L1327.89 37.167Z" fill="white" fill-opacity="0.3"/>
<path d="M942.933 -48.2611L1069.39 -68.2905L1079.4 -5.11436L952.939 14.915L942.933 -48.2611ZM988.826 9.75991L991.278 9.37157L991.554 11.1163L1041.5 3.20555L1041.22 1.46077L1043.68 1.0725L1043.95 2.81728L1082.21 -3.24201L1071.49 -70.9394L940.123 -50.1334L950.846 17.564L989.102 11.5047L988.826 9.75991Z" fill="white" fill-opacity="0.3"/>
<path d="M946.922 -45.6365L1066.41 -64.562L1075.18 -9.19418L955.691 9.73135L946.922 -45.6365ZM953.598 12.3802L1077.99 -7.32184L1068.51 -67.2109L944.112 -47.5088L953.598 12.3802Z" fill="white" fill-opacity="0.3"/>
<path d="M1048.83 9.58517L986.559 19.4474L986.537 19.3113L1048.8 9.44915L1048.83 9.58517ZM1042.38 8.76633L1042.29 8.16418L992.34 16.075L992.435 16.6771L989.983 17.0655L989.888 16.4633L983.727 17.4391L984.465 22.0967L1051.64 11.4578L1050.9 6.80019L1044.74 7.77592L1044.83 8.37806L1042.38 8.76633Z" fill="white" fill-opacity="0.3"/>
<path d="M992.435 16.6772L991.278 9.3716L988.826 9.75994L989.983 17.0656L992.435 16.6772Z" fill="white" fill-opacity="0.3"/>
<path d="M1041.22 1.46074L1042.38 8.76636L1044.83 8.37809L1043.68 1.07248L1041.22 1.46074Z" fill="white" fill-opacity="0.3"/>
<path d="M1133.38 196.141L1134.6 195.947L1122.97 122.476L1121.74 122.67L1121.38 120.41L1122.61 120.215L1118.53 94.4444L1117.3 94.6385L1116.94 92.3775L1118.17 92.1834L1117.67 89.0188L1169.4 80.8245L1169.9 83.9891L1171.13 83.7949L1171.49 86.0559L1170.26 86.2501L1174.34 112.021L1175.57 111.827L1175.93 114.088L1174.7 114.282L1186.34 187.753L1187.56 187.559L1187.92 189.819L1186.7 190.013L1187.19 193.136L1135.45 201.331L1134.96 198.208L1133.73 198.402L1133.38 196.141ZM1133.36 203.982L1190 195.011L1171.5 78.1756L1114.86 87.1464L1133.36 203.982Z" fill="white" fill-opacity="0.3"/>
<path d="M1171.49 86.0558L1171.13 83.7948L1116.94 92.3774L1117.3 94.6384L1118.53 94.4443L1170.26 86.25L1171.49 86.0558Z" fill="white" fill-opacity="0.3"/>
<path d="M1061.07 30.5701L1147.41 16.8958L1155.24 66.3528L1068.91 80.0271L1061.07 30.5701ZM1066.81 82.6764L1158.05 68.2255L1149.5 14.2465L1058.26 28.6974L1066.81 82.6764Z" fill="white" fill-opacity="0.3"/>
<path d="M1068.21 36.7555L1131.31 26.7623L1136.88 61.9453L1073.78 71.9386L1068.21 36.7555ZM1071.69 74.587L1139.69 63.8172L1133.4 24.1134L1065.4 34.8832L1071.69 74.587Z" fill="white" fill-opacity="0.3"/>
<path d="M1084.36 38.4222L1116.46 33.3371L1116.11 31.0765L1084 36.1616L1084.36 38.4222Z" fill="white" fill-opacity="0.3"/>
<path d="M1142.53 33.4553C1140.87 33.7169 1139.33 32.6905 1139.09 31.1672C1138.85 29.6444 1140 28.1926 1141.65 27.9311C1143.3 27.6695 1144.84 28.6956 1145.08 30.2184C1145.33 31.7417 1144.18 33.1937 1142.53 33.4553ZM1141.29 25.6701C1138.29 26.1458 1136.2 28.7862 1136.64 31.5555C1137.08 34.3256 1139.88 36.1916 1142.88 35.7159C1145.89 35.2402 1147.97 32.6002 1147.54 29.8301C1147.1 27.0608 1144.3 25.1944 1141.29 25.6701Z" fill="white" fill-opacity="0.3"/>
<path d="M1144.44 45.5459C1142.79 45.8075 1141.25 44.7811 1141.01 43.2582C1140.77 41.7354 1141.91 40.2836 1143.57 40.022C1145.22 39.7604 1146.76 40.7865 1147 42.3094C1147.24 43.8322 1146.09 45.2843 1144.44 45.5459ZM1143.21 37.7611C1140.2 38.2368 1138.12 40.8772 1138.56 43.6465C1139 46.4162 1141.8 48.2822 1144.8 47.8065C1147.8 47.3308 1149.89 44.6907 1149.45 41.9211C1149.01 39.1518 1146.21 37.2854 1143.21 37.7611Z" fill="white" fill-opacity="0.3"/>
<path d="M1146.36 57.6368C1144.7 57.8984 1143.16 56.8724 1142.92 55.3495C1142.68 53.8263 1143.83 52.3741 1145.48 52.1126C1147.13 51.8509 1148.67 52.8775 1148.91 54.4007C1149.16 55.9235 1148.01 57.3752 1146.36 57.6368ZM1145.12 49.852C1142.12 50.3277 1140.03 52.9677 1140.47 55.7378C1140.91 58.5071 1143.71 60.3735 1146.71 59.8978C1149.72 59.4221 1151.8 56.7816 1151.37 54.0124C1150.93 51.2423 1148.13 49.3763 1145.12 49.852Z" fill="white" fill-opacity="0.3"/>
</g>
<g opacity="0.4" clip-path="url(#clip4_2_1968)">
<path d="M1473.35 21.8449L1472.89 21.952L1472.02 23.2418C1469.49 21.2947 1467.05 19.5003 1464.69 17.8231L1465.1 15.2059C1467.93 17.1921 1470.88 19.3681 1473.95 21.7411C1473.61 21.7888 1473.4 21.8364 1473.35 21.8449Z" fill="white" fill-opacity="0.3"/>
<path d="M1460.73 44.2784L1460.43 44.7211L1460.73 44.2779L1460.73 44.2784Z" fill="white" fill-opacity="0.3"/>
<path d="M1472.89 21.952L1473.35 21.8449C1473.4 21.8364 1473.61 21.7888 1473.95 21.7411C1475.48 21.5257 1479.65 21.2845 1482.85 24.2849L1483.58 24.969L1457.42 63.7368L1458.31 58.12L1465.54 47.3985C1465.84 47.1904 1466.11 46.9345 1466.32 46.6184C1466.53 46.3024 1466.67 45.9591 1466.75 45.6097L1480.41 25.3587C1478.14 23.7787 1475.41 23.9347 1474.36 24.0706L1461.93 42.486C1461.64 42.6941 1461.37 42.9509 1461.15 43.267C1460.94 43.5836 1460.81 43.9276 1460.73 44.2781L1460.43 44.721L1461.32 39.1042L1472.02 23.2418L1472.89 21.952Z" fill="white" fill-opacity="0.3"/>
<path d="M1464.11 44.392C1463.8 44.1904 1463.38 44.2722 1463.18 44.5759C1462.97 44.8789 1463.06 45.2914 1463.37 45.4931C1463.68 45.696 1464.1 45.6132 1464.3 45.3099C1464.51 45.0065 1464.42 44.5945 1464.11 44.392ZM1462.04 47.4559C1460.95 46.7429 1460.46 45.4624 1460.73 44.2785L1460.73 44.2781C1460.81 43.9276 1460.94 43.5836 1461.16 43.267C1461.37 42.9509 1461.64 42.6941 1461.94 42.486C1462.95 41.7856 1464.33 41.7172 1465.44 42.4305C1466.53 43.1435 1467.02 44.4249 1466.75 45.6097C1466.67 45.9591 1466.53 46.3024 1466.32 46.6184C1466.11 46.9345 1465.84 47.1904 1465.54 47.3985C1464.53 48.1002 1463.15 48.1691 1462.04 47.4559Z" fill="white" fill-opacity="0.3"/>
<path d="M1565.36 -49.5229L1566.61 -49.3814L1557.6 7.51599L1556.36 7.26026C1545.1 4.94232 1533.75 2.80766 1522.36 0.840213L1522.55 -0.355656L1520.16 -0.733519L1519.98 0.421603C1511.55 -1.01511 1503.1 -2.35378 1494.64 -3.59217L1494.82 -4.74729L1492.43 -5.12515L1492.24 -3.92928C1484.38 -5.06329 1476.5 -6.11414 1468.63 -7.07263L1469 -9.39862C1497.98 -5.86803 1527.05 -1.14413 1555.6 4.6987L1563.84 -47.3217C1534.89 -50.6117 1505.78 -55.1045 1477.12 -60.6824L1477.49 -63.0089C1506.53 -57.3547 1536.03 -52.8198 1565.36 -49.5229Z" fill="white" fill-opacity="0.3"/>
<path d="M1493.91 0.995011L1494.09 -0.168441L1519.44 3.84533L1519.25 5.00878L1521.64 5.38664L1521.82 4.22319L1529.86 5.49651L1529.49 7.82434L1483.3 0.508208L1483.67 -1.81962L1491.71 -0.546304L1491.52 0.617148L1493.91 0.995011Z" fill="white" fill-opacity="0.3"/>
<path d="M1519.25 5.00886L1520.16 -0.733429L1522.55 -0.355566L1521.64 5.38672L1519.25 5.00886Z" fill="white" fill-opacity="0.3"/>
<path d="M1494.82 -4.74729L1493.91 0.994995L1491.52 0.617133L1492.43 -5.12515L1494.82 -4.74729Z" fill="white" fill-opacity="0.3"/>
<path d="M1484.48 91.3559L1513.87 92.2096C1518.35 92.3358 1522.95 95.7078 1524.35 99.8822L1531.08 119.965C1532.47 124.124 1530.84 129.514 1527.37 132.233L1515.85 141.244C1515.59 141.449 1515.24 141.537 1514.91 141.484L1446.81 130.699L1447.18 128.375L1514.75 139.076L1516.48 137.722L1518.94 138.112L1519.31 135.783L1519.01 135.737L1525.85 130.389C1528.51 128.309 1529.85 123.862 1528.79 120.684L1522.06 100.597C1520.99 97.4287 1517.23 94.6677 1513.81 94.5687L1484.42 93.7103C1480.78 93.6084 1475.24 95.298 1472.32 97.4077L1449.47 113.902L1450 110.578L1470.88 95.5083C1474.27 93.0558 1480.25 91.231 1484.48 91.3559Z" fill="white" fill-opacity="0.3"/>
<path d="M1905.18 50.3246C1905 52.8477 1906.79 55.0537 1909.33 55.4567L1970.82 65.1958C1973.37 65.5987 1975.75 64.0528 1976.36 61.5988C1984.79 27.823 1978.66 3.40532 1975.63 -5.52489C1975.05 -7.23856 1973.55 -8.48296 1971.72 -8.77308L1931.34 -15.1692C1929.5 -15.4592 1927.69 -14.7388 1926.61 -13.2885C1920.97 -5.73079 1907.59 15.5968 1905.18 50.3246ZM1924.66 -14.6872C1926.28 -16.853 1928.98 -17.9289 1931.7 -17.4966L1972.09 -11.1005C1974.82 -10.668 1977.05 -8.8101 1977.92 -6.2514C1981.01 2.87246 1987.29 27.8045 1978.7 62.1743C1977.79 65.8243 1974.25 68.1242 1970.45 67.5236L1908.96 57.7845C1905.17 57.1839 1902.51 53.9004 1902.77 50.1474C1905.23 14.8088 1918.9 -6.96551 1924.66 -14.6872Z" fill="white" fill-opacity="0.3"/>
<path d="M1921 15.2213L1919.01 14.9068L1918.64 17.2342L1919.74 17.4075C1919.1 18.6362 1918.56 19.9219 1918.11 21.2591L1916.47 20.9992L1916.1 23.3275L1917.47 23.544C1917.32 24.1982 1917.18 24.8599 1917.07 25.5345C1916.96 26.209 1916.89 26.8811 1916.84 27.5515L1915.55 27.3479L1915.18 29.6757L1916.74 29.9228C1916.75 31.3319 1916.87 32.7232 1917.1 34.0875L1916 33.9143L1915.63 36.2421L1917.62 36.5566C1918.01 38.0556 1918.54 39.5103 1919.18 40.9117L1918.23 40.7615L1917.86 43.0889L1920.53 43.5114C1921.51 45.1719 1922.65 46.733 1923.96 48.1646L1923.43 48.0802L1923.06 50.4081L1926.99 51.0312C1930.48 53.8731 1934.69 55.9321 1939.4 56.8786L1939.21 58.0717L1941.6 58.4494L1941.79 57.2563C1946.55 57.8102 1951.2 57.1552 1955.39 55.5295L1959.15 56.124L1959.52 53.7962L1959.16 53.7405C1960.85 52.7821 1962.42 51.6524 1963.87 50.3757L1966.35 50.7697L1966.72 48.4423L1965.95 48.3207C1966.99 47.185 1967.94 45.9638 1968.78 44.6599L1970.59 44.9458L1970.95 42.618L1970.04 42.4733C1970.68 41.245 1971.22 39.9593 1971.67 38.622L1973.04 38.8404L1973.41 36.5126L1972.31 36.3377C1972.46 35.683 1972.6 35.0217 1972.71 34.3472C1972.82 33.6726 1972.89 33.0001 1972.94 32.3301L1974.13 32.5179L1974.5 30.1896L1973.04 29.9583C1973.03 28.5493 1972.91 27.158 1972.68 25.7932L1973.6 25.9379L1973.97 23.6105L1972.16 23.3245C1971.77 21.8252 1971.24 20.3708 1970.6 18.9695L1971.14 19.0548L1971.51 16.7265L1969.25 16.3688C1968.27 14.7087 1967.12 13.1482 1965.82 11.7171L1966.17 11.7728L1966.54 9.44499L1962.79 8.85055C1959.3 6.00765 1955.08 3.94904 1950.38 3.00257L1950.57 1.80901L1948.18 1.43129L1947.99 2.62486C1943.23 2.07092 1938.58 2.72534 1934.38 4.35202L1930.45 3.72903L1930.08 6.05686L1930.61 6.14115C1928.93 7.09906 1927.36 8.22834 1925.91 9.50457L1923.47 9.11821L1923.11 11.4465L1923.82 11.5604C1922.79 12.6962 1921.84 13.9169 1921 15.2213ZM1949.56 0.456149C1966.21 3.09414 1977.67 18.467 1975.09 34.7248C1972.52 50.9822 1956.87 62.0624 1940.22 59.4244C1923.56 56.7866 1912.11 41.4141 1914.68 25.1568C1917.26 8.8989 1932.9 -2.18169 1949.56 0.456149Z" fill="white" fill-opacity="0.3"/>
<path d="M1947.77 19.4618L1973.97 23.6105L1973.6 25.9379L1918.64 17.2342L1919.01 14.9068L1921 15.2213L1945.39 19.0841L1947.77 19.4618Z" fill="white" fill-opacity="0.3"/>
<path d="M1946.77 25.7976L1974.5 30.1896L1974.13 32.5179L1916.1 23.3275L1916.47 20.9992L1918.11 21.2591L1944.38 25.4199L1946.77 25.7976Z" fill="white" fill-opacity="0.3"/>
<path d="M1945.76 32.1333L1973.41 36.5125L1973.04 38.8403L1915.18 29.6756L1915.55 27.3478L1916.84 27.5514L1943.38 31.7556L1945.76 32.1333Z" fill="white" fill-opacity="0.3"/>
<path d="M1944.76 38.4692L1970.95 42.6178L1970.59 44.9457L1915.63 36.242L1916 33.9141L1917.1 34.0874L1942.38 38.0914L1944.76 38.4692Z" fill="white" fill-opacity="0.3"/>
<path d="M1943.76 44.805L1966.72 48.4423L1966.35 50.7697L1917.86 43.0888L1918.23 40.7614L1919.18 40.9116L1941.37 44.4273L1943.76 44.805Z" fill="white" fill-opacity="0.3"/>
<path d="M1930.19 157.459L1929 157.271L1940.18 86.6589L1909.09 81.7341L1897.9 152.346L1896.71 152.157L1896.34 154.481L1897.53 154.67L1893.56 179.759L1924.65 184.683L1928.63 159.595L1929.82 159.784L1930.19 157.459ZM1926.67 187.39L1890.81 181.71L1907.07 79.0281L1942.93 84.7083L1926.67 187.39Z" fill="white" fill-opacity="0.3"/>
<path d="M1545.08 24.2346L1655.13 41.6639L1652.36 59.1551L1650.19 58.8118L1648.48 69.6297L1650.64 69.973L1645.05 105.266L1629.56 102.811L1629.93 100.483L1643.04 102.56L1652.37 43.6141L1547.1 26.9403L1537.76 85.8864L1550.88 87.9632L1550.51 90.291L1535.01 87.8363L1545.08 24.2346Z" fill="white" fill-opacity="0.3"/>
<path d="M1618.71 98.7068L1618.34 101.035L1561.73 92.0677L1562.09 89.7399L1618.71 98.7068Z" fill="white" fill-opacity="0.3"/>
<path d="M1554.45 33.0959L1554.22 34.5746L1553.03 34.3861L1552.66 36.7139L1553.85 36.9025L1553.62 38.3812L1552.43 38.1926L1552.06 40.52L1553.25 40.7086L1553.01 42.1878L1551.82 41.9992L1551.45 44.3266L1552.64 44.5152L1552.41 45.9934L1551.22 45.8049L1550.85 48.1332L1552.04 48.3217L1551.81 49.8L1550.62 49.6115L1550.25 51.9393L1551.44 52.1279L1551.2 53.6066L1550.01 53.4181L1549.65 55.7459L1548.45 55.5566L1552.44 30.3906L1553.63 30.5799L1553.26 32.9073L1554.45 33.0959Z" fill="white" fill-opacity="0.3"/>
<path d="M1640.23 67.7068L1640.47 66.2281L1641.66 66.4169L1642.03 64.0891L1640.83 63.9002L1641.07 62.4219L1642.26 62.6108L1642.63 60.2825L1641.44 60.0936L1641.67 58.6154L1642.86 58.8042L1643.23 56.4768L1642.04 56.288L1642.27 54.8088L1643.47 54.9976L1643.83 52.6703L1642.64 52.4814L1642.88 51.0027L1644.07 51.1915L1644.44 48.8637L1643.25 48.6748L1643.48 47.1961L1644.67 47.3849L1645.04 45.0576L1646.23 45.2464L1642.25 70.4124L1641.05 70.2235L1641.42 67.8957L1640.23 67.7068Z" fill="white" fill-opacity="0.3"/>
<path d="M1643.48 47.196L1553.26 32.9072L1553.63 30.5798L1645.04 45.0575L1644.67 47.3849L1643.48 47.196Z" fill="white" fill-opacity="0.3"/>
<path d="M1552.66 36.7139L1553.03 34.386L1644.44 48.8637L1644.07 51.1915L1642.88 51.0027L1553.85 36.9024L1552.66 36.7139Z" fill="white" fill-opacity="0.3"/>
<path d="M1552.06 40.52L1552.43 38.1926L1643.83 52.6703L1643.47 54.9977L1642.27 54.8088L1553.25 40.7086L1552.06 40.52Z" fill="white" fill-opacity="0.3"/>
<path d="M1551.45 44.3265L1551.82 41.9991L1643.23 56.4768L1642.86 58.8042L1641.67 58.6153L1552.65 44.5151L1551.45 44.3265Z" fill="white" fill-opacity="0.3"/>
<path d="M1550.85 48.1332L1551.22 45.8049L1642.63 60.2825L1642.26 62.6108L1641.07 62.422L1552.04 48.3217L1550.85 48.1332Z" fill="white" fill-opacity="0.3"/>
<path d="M1550.25 51.9393L1550.62 49.6115L1642.03 64.0892L1641.66 66.417L1640.46 66.2281L1551.44 52.1279L1550.25 51.9393Z" fill="white" fill-opacity="0.3"/>
<path d="M1550.01 53.418L1641.42 67.8957L1641.05 70.2235L1549.65 55.7458L1550.01 53.418Z" fill="white" fill-opacity="0.3"/>
<path d="M1552.63 92.3207L1559.08 93.3419L1559.34 91.69L1552.89 90.6688L1552.63 92.3207ZM1562.09 89.7399L1561.09 96.048L1549.88 94.2713L1550.88 87.9632L1562.09 89.7399Z" fill="white" fill-opacity="0.3"/>
<path d="M1651.23 67.679L1653.72 68.0735L1654.7 61.9117L1652.21 61.5173L1651.23 67.679ZM1650.19 58.8118L1657.45 59.9615L1655.74 70.7794L1648.48 69.6297L1650.19 58.8118Z" fill="white" fill-opacity="0.3"/>
<path d="M1729.48 83.0318L1724.69 82.2739C1726.56 82.5702 1728.36 81.9098 1729.57 80.6593L1732.23 81.0817L1731.56 85.3225L1729.18 84.9448L1729.48 83.0318Z" fill="white" fill-opacity="0.3"/>
<path d="M1697.87 78.025L1692.75 77.2152L1692.45 79.1282L1690.07 78.7505L1690.74 74.5096L1693.74 74.9846C1694.5 76.5461 1696 77.7295 1697.87 78.025Z" fill="white" fill-opacity="0.3"/>
<path d="M1689.28 81.0128C1688.94 80.9585 1688.6 81.0403 1688.32 81.2428C1688.05 81.4462 1687.87 81.7431 1687.83 82.0792L1682.68 123.777C1682.57 124.62 1683.17 125.387 1684.03 125.524L1722.85 131.673C1723.71 131.809 1724.51 131.262 1724.67 130.429L1732.66 89.1792C1732.72 88.8467 1732.65 88.5102 1732.45 88.2312C1732.25 87.9531 1731.95 87.7702 1731.61 87.7159L1731.19 87.6503L1689.7 81.0783L1689.28 81.0128ZM1729.18 84.9448L1731.97 85.388C1732.97 85.5456 1733.84 86.077 1734.42 86.8847C1735 87.6924 1735.22 88.6684 1735.03 89.6344L1727.05 130.88C1726.64 132.971 1724.64 134.338 1722.48 133.997L1683.66 127.848C1681.5 127.507 1680.02 125.587 1680.28 123.474L1685.44 81.7795C1685.56 80.8029 1686.06 79.9418 1686.87 79.3532C1687.67 78.7646 1688.66 78.5274 1689.65 78.6849L1690.07 78.7505L1692.45 79.1282L1729.18 84.9448Z" fill="white" fill-opacity="0.3"/>
<path d="M1695.11 68.6966L1693.66 67.7244L1697.4 31.0742L1698.69 31.278L1699.06 28.9506L1697.64 28.7264L1698.09 24.3886C1698.21 23.1832 1698.82 22.1148 1699.8 21.3803C1700.6 20.778 1701.56 20.4879 1702.56 20.5021C1702.48 20.7383 1702.42 20.9803 1702.38 21.2321L1702.13 22.7562L1702.85 22.8693C1702.28 22.78 1701.73 22.9168 1701.27 23.2554C1700.82 23.5935 1700.54 24.085 1700.49 24.6394L1695.61 72.3687C1695.45 73.9762 1696.6 75.4382 1698.24 75.6971L1725.06 79.946C1726.71 80.2066 1728.26 79.1635 1728.59 77.5712L1738.38 30.627C1738.49 30.0836 1738.37 29.5326 1738.05 29.0749C1737.72 28.6163 1737.23 28.3153 1736.67 28.2264L1737.39 28.3395L1737.63 26.8154C1737.67 26.5631 1737.68 26.3137 1737.68 26.0653C1738.63 26.3573 1739.45 26.9274 1740.03 27.7412C1740.73 28.7356 1740.99 29.9342 1740.74 31.114L1730.95 78.0582C1730.74 79.0744 1730.24 79.9574 1729.57 80.6593C1728.36 81.9098 1726.57 82.5702 1724.69 82.2738L1697.87 78.0249C1696 77.7295 1694.5 76.546 1693.74 74.9845C1693.31 74.1171 1693.11 73.136 1693.21 72.1169L1693.39 70.394L1693.75 70.6363L1695.11 68.6966Z" fill="white" fill-opacity="0.3"/>
<path d="M1691.67 27.7806L1699.06 28.9506L1698.69 31.278L1691.3 30.108C1689.51 29.8243 1687.83 31.0162 1687.55 32.7649L1683.45 58.6452C1683.26 59.8864 1683.82 61.1377 1684.92 61.846L1693.66 67.7244L1695.11 68.6967L1693.75 70.6363L1693.39 70.394L1683.58 63.7979C1681.71 62.5901 1680.73 60.4199 1681.07 58.2675L1685.17 32.3872C1685.65 29.3551 1688.56 27.2886 1691.67 27.7806Z" fill="white" fill-opacity="0.3"/>
<path d="M1732.89 23.2802L1707.97 19.334C1706.73 19.1363 1705.54 19.7746 1705.01 20.8254L1735.25 25.6139C1735.07 24.4516 1734.14 23.4779 1732.89 23.2802ZM1737.39 28.3396L1702.14 22.7563L1702.38 21.2322C1702.42 20.9803 1702.48 20.7384 1702.56 20.5021C1703.31 18.1289 1705.75 16.5952 1708.34 17.0057L1733.26 20.9519C1735.85 21.3624 1737.7 23.5759 1737.68 26.0653C1737.68 26.3137 1737.67 26.5632 1737.63 26.8155L1737.39 28.3396Z" fill="white" fill-opacity="0.3"/>
<path d="M1603.86 -54.6311L1605.21 -54.4176L1595.91 4.31228L1594.56 4.09878L1594.15 6.72987L1595.49 6.94336L1594.73 11.7717L1660.78 22.2332L1661.54 17.4048L1662.89 17.6184L1663.31 14.9873L1661.96 14.7737L1671.26 -43.9561L1672.61 -43.7426L1673.03 -46.3741L1671.68 -46.5877L1672.97 -54.743L1606.92 -65.2044L1605.63 -57.0491L1604.28 -57.2626L1603.86 -54.6311ZM1604.64 -68.2629L1676.09 -56.9475L1663.06 25.2922L1591.62 13.9768L1604.64 -68.2629Z" fill="white" fill-opacity="0.3"/>
<path d="M1663.31 14.9873L1662.89 17.6184L1594.15 6.72991L1594.56 4.09883L1595.91 4.31233L1661.96 14.7738L1663.31 14.9873Z" fill="white" fill-opacity="0.3"/>
<path d="M1660.94 -33.6984L1611.87 -41.47L1605.16 0.861203L1654.23 8.63288L1660.94 -33.6984ZM1656.51 11.6919L1602.05 3.06615L1609.59 -44.5287L1664.05 -35.9029L1656.51 11.6919Z" fill="white" fill-opacity="0.3"/>
<path d="M1821 134.705L1819.65 134.492L1833.2 48.9647L1834.55 49.1782L1834.96 46.5466L1833.61 46.3331L1838.37 16.3333L1839.71 16.5468L1840.13 13.9147L1838.78 13.7012L1839.37 10.0173L1782.47 1.00578L1781.89 4.68967L1780.54 4.4761L1780.12 7.10812L1781.47 7.32169L1776.72 37.3216L1775.37 37.108L1774.95 39.7395L1776.3 39.9531L1762.75 125.48L1761.41 125.266L1760.99 127.898L1762.34 128.112L1761.76 131.747L1818.66 140.758L1819.23 137.123L1820.58 137.337L1821 134.705ZM1820.94 143.82L1758.65 133.954L1780.19 -2.05277L1842.48 7.81278L1820.94 143.82Z" fill="white" fill-opacity="0.3"/>
<path d="M1780.12 7.10811L1780.54 4.47609L1840.13 13.9147L1839.71 16.5468L1838.37 16.3333L1781.47 7.32169L1780.12 7.10811Z" fill="white" fill-opacity="0.3"/>
<path d="M1774.95 39.7395L1775.37 37.1079L1834.96 46.5466L1834.54 49.1781L1833.2 48.9646L1776.3 39.953L1774.95 39.7395Z" fill="white" fill-opacity="0.3"/>
<path d="M1819.87 84.8903L1821.29 85.1153L1824.07 67.5917L1822.65 67.3667L1819.87 84.8903ZM1827.18 65.3868L1823.57 88.174L1816.76 87.0949L1820.37 64.3077L1827.18 65.3868Z" fill="white" fill-opacity="0.3"/>
<path d="M1808.58 29.0043L1807.94 33.0415L1805.24 32.6145L1805.88 28.5774L1807.35 28.0316L1808.58 29.0043Z" fill="white" fill-opacity="0.3"/>
<path d="M1806.6 24.0193L1807.24 19.9822L1809.94 20.4092L1809.3 24.4463L1807.83 24.9926L1806.6 24.0193Z" fill="white" fill-opacity="0.3"/>
<path d="M1807.35 28.0316L1805.88 28.5774L1801.98 30.0287L1800.99 27.5364L1804.89 26.0847L1807.35 28.0316Z" fill="white" fill-opacity="0.3"/>
<path d="M1807.83 24.9926L1809.3 24.4464L1813.2 22.9952L1814.19 25.4879L1810.29 26.9387L1807.83 24.9926Z" fill="white" fill-opacity="0.3"/>
<path d="M1804.9 26.0846L1801.63 23.4992L1803.34 21.4335L1806.6 24.0193L1807.83 24.9926L1810.29 26.9387L1813.55 29.5249L1811.84 31.5902L1808.58 29.0043L1807.35 28.0315L1804.9 26.0846Z" fill="white" fill-opacity="0.3"/>
<path d="M1902.28 -58.4927L1807.33 -73.5309L1798.21 -15.9585L1893.16 -0.92032L1902.28 -58.4927ZM1895.44 2.13867L1795.1 -13.7535L1805.05 -76.5899L1905.39 -60.6977L1895.44 2.13867Z" fill="white" fill-opacity="0.3"/>
</g>
</g>
<defs>
<clipPath id="clip0_2_1968">
<rect width="1920" height="93" fill="white"/>
</clipPath>
<clipPath id="clip1_2_1968">
<rect width="523.995" height="483.206" fill="white" transform="translate(-146.922 9.7832) rotate(-9)"/>
</clipPath>
<clipPath id="clip2_2_1968">
<rect width="523.995" height="483.206" fill="white" transform="translate(371 -72.0293) rotate(-9)"/>
</clipPath>
<clipPath id="clip3_2_1968">
<rect width="523.995" height="483.206" fill="white" transform="translate(886 -168.029) rotate(-9)"/>
</clipPath>
<clipPath id="clip4_2_1968">
<rect width="576.257" height="562.496" fill="white" transform="matrix(-0.987688 -0.156434 -0.156434 0.987688 2097.06 -291.108)"/>
</clipPath>
</defs>
</svg>
