<svg width="50" height="32" viewBox="0 0 50 32" fill="none" xmlns="http://www.w3.org/2000/svg">
<g clip-path="url(#clip0_2_3926)">
<path opacity="0.07" d="M46.0526 0H3.94737C1.71053 0 0 1.71053 0 3.94737V27.6316C0 29.8684 1.84211 31.5789 3.94737 31.5789H46.0526C48.2895 31.5789 50 29.8684 50 27.6316V3.94737C50 1.71053 48.1579 0 46.0526 0Z" fill="black"/>
<path d="M46.0523 1.3158C47.4996 1.3158 48.6839 2.50001 48.6839 3.94737V27.6316C48.6839 29.079 47.4996 30.2632 46.0523 30.2632H3.94701C2.49964 30.2632 1.31543 29.079 1.31543 27.6316V3.94737C1.31543 2.50001 2.49964 1.3158 3.94701 1.3158H46.0523Z" fill="white"/>
<path d="M23.8063 15.7579V19.9684H22.4668V9.57367H26.0076C26.4318 9.56649 26.8533 9.64324 27.2478 9.7995C27.6423 9.95576 28.002 10.1885 28.3063 10.4842C28.5945 10.7531 28.8269 11.0762 28.9901 11.435C29.1534 11.7938 29.2443 12.1813 29.2578 12.5753C29.2712 12.9692 29.2069 13.362 29.0685 13.7311C28.93 14.1002 28.7202 14.4383 28.451 14.7263L28.3063 14.8789C27.6878 15.4671 26.8615 15.7868 26.0076 15.7658L23.8063 15.7579ZM23.8063 10.8474V14.5158H26.0405C26.5365 14.5316 27.0155 14.3381 27.3628 13.9842C27.6113 13.7252 27.7782 13.3989 27.8426 13.0458C27.9071 12.6928 27.8663 12.3285 27.7254 11.9984C27.5845 11.6684 27.3496 11.387 27.05 11.1894C26.7505 10.9917 26.3994 10.8865 26.0405 10.8868L23.8063 10.8474ZM32.3378 12.621C33.1931 12.5816 34.03 12.8684 34.6773 13.4276C35.2628 13.9934 35.5747 14.7829 35.5326 15.5974V19.9842H34.2576V18.9763H34.1931C33.9645 19.3543 33.6411 19.6662 33.2551 19.881C32.869 20.0958 32.4336 20.2062 31.9918 20.2013C31.2706 20.2247 30.5673 19.9741 30.0234 19.5C29.7657 19.2898 29.5591 19.0237 29.4194 18.7219C29.2796 18.4201 29.2104 18.0904 29.2168 17.7579C29.2016 17.4218 29.2669 17.087 29.4072 16.7812C29.5475 16.4755 29.7587 16.2076 30.0234 16C30.6726 15.5331 31.4584 15.2948 32.2576 15.3224C32.9378 15.296 33.6129 15.4447 34.2181 15.7579V15.4842C34.2226 15.2579 34.1755 15.0336 34.0804 14.8282C33.9853 14.6228 33.8448 14.4417 33.6694 14.2987C33.3172 13.9785 32.8558 13.8052 32.38 13.8145C32.0343 13.8112 31.6936 13.8961 31.3899 14.0612C31.0862 14.2263 30.8297 14.4661 30.6444 14.7579L29.4668 14.0158C29.7866 13.5576 30.2183 13.1889 30.7208 12.9448C31.2234 12.7007 31.78 12.5892 32.3378 12.621ZM30.6444 17.7895C30.6413 17.9599 30.68 18.1285 30.7574 18.2804C30.8347 18.4323 30.9482 18.5628 31.0879 18.6605C31.3813 18.8921 31.7457 19.0145 32.1207 19.0066C32.6852 19.0053 33.226 18.7829 33.6286 18.3855C34.03 18.0092 34.2576 17.4842 34.2576 16.9342C33.7511 16.5741 33.1356 16.4002 32.5155 16.4421C32.034 16.4231 31.5591 16.5587 31.1602 16.8289C31.0022 16.9346 30.8726 17.0775 30.7827 17.2449C30.6927 17.4124 30.6453 17.5994 30.6444 17.7895ZM42.8629 12.8553L38.4023 23.1053H37.0234L38.7089 19.5158L35.7826 12.8553H37.2339L39.355 17.9671L41.4194 12.8553H42.8629Z" fill="#5F6368"/>
<path d="M18.4029 14.8474C18.4029 14.4421 18.3713 14.0368 18.3068 13.6368H12.6621V15.9355H15.8871C15.8214 16.3008 15.6827 16.6492 15.4792 16.9596C15.2758 17.27 15.0117 17.5362 14.7029 17.7421V19.2342H16.6292C17.2149 18.6675 17.6754 17.9843 17.9809 17.2287C18.2864 16.4731 18.4301 15.6619 18.4029 14.8474Z" fill="#4285F4"/>
<path d="M12.6695 20.6855C14.1252 20.7255 15.5414 20.2093 16.63 19.2421L14.701 17.7421C14.2376 18.0393 13.7124 18.2269 13.1655 18.2906C12.6187 18.3543 12.0645 18.2924 11.5451 18.1097C11.0257 17.927 10.5548 17.6283 10.1683 17.2363C9.78169 16.8443 9.4896 16.3693 9.31421 15.8474H7.33789V17.3869C7.83243 18.3777 8.59322 19.2112 9.53494 19.7938C10.4767 20.3765 11.5621 20.6852 12.6695 20.6855Z" fill="#34A853"/>
<path d="M9.31449 15.8553C9.06421 15.1149 9.06421 14.3128 9.31449 13.5724V12.0329H7.33817C6.91684 12.8638 6.69727 13.7822 6.69727 14.7138C6.69727 15.6454 6.91684 16.5639 7.33817 17.3947L9.31449 15.8553Z" fill="#FBBC04"/>
<path d="M12.6695 11.1053C13.5208 11.0897 14.3438 11.4113 14.9589 12L16.6695 10.2987C15.5788 9.27502 14.1322 8.71665 12.6366 8.74211C11.5357 8.74763 10.4579 9.0579 9.52267 9.63853C8.5874 10.2192 7.83119 11.0474 7.33789 12.0316L9.31421 13.5724C9.54529 12.8619 9.99327 12.2419 10.5951 11.7993C11.197 11.3568 11.9225 11.114 12.6695 11.1053Z" fill="#EA4335"/>
</g>
<defs>
<clipPath id="clip0_2_3926">
<rect width="50" height="31.5789" fill="white"/>
</clipPath>
</defs>
</svg>
