<svg width="32" height="32" viewBox="0 0 32 32" fill="none" xmlns="http://www.w3.org/2000/svg">
<rect width="32" height="32" rx="6" fill="#F58720"/>
<path d="M16.2552 27.5294L15.9611 24H15.667C12.8827 24 10.5199 23.0294 8.57876 21.0882C6.63758 19.1471 5.66699 16.7843 5.66699 14C5.66699 11.2157 6.63758 8.85294 8.57876 6.91176C10.5199 4.97059 12.8827 4 15.667 4C17.0591 4 18.3584 4.25961 19.5646 4.77882C20.7709 5.29804 21.8297 6.01373 22.7411 6.92588C23.6525 7.83804 24.3678 8.89686 24.887 10.1024C25.4062 11.3078 25.6662 12.6071 25.667 14C25.667 15.4706 25.4266 16.8824 24.9458 18.2353C24.465 19.5882 23.8082 20.8431 22.9752 22C22.1423 23.1569 21.1521 24.2059 20.0046 25.1471C18.8572 26.0882 17.6074 26.8824 16.2552 27.5294ZM15.6376 20.4412C15.9709 20.4412 16.2552 20.3235 16.4905 20.0882C16.7258 19.8529 16.8435 19.5686 16.8435 19.2353C16.8435 18.902 16.7258 18.6176 16.4905 18.3824C16.2552 18.1471 15.9709 18.0294 15.6376 18.0294C15.3042 18.0294 15.0199 18.1471 14.7846 18.3824C14.5493 18.6176 14.4317 18.902 14.4317 19.2353C14.4317 19.5686 14.5493 19.8529 14.7846 20.0882C15.0199 20.3235 15.3042 20.4412 15.6376 20.4412ZM14.7846 16.7059H16.5493C16.5493 16.1176 16.6082 15.7059 16.7258 15.4706C16.8435 15.2353 17.216 14.8039 17.8435 14.1765C18.1964 13.8235 18.4905 13.4412 18.7258 13.0294C18.9611 12.6176 19.0788 12.1765 19.0788 11.7059C19.0788 10.7059 18.7403 9.95569 18.0635 9.45529C17.3866 8.9549 16.5878 8.7051 15.667 8.70588C14.8042 8.70588 14.0788 8.94627 13.4905 9.42706C12.9023 9.90784 12.4905 10.491 12.2552 11.1765L13.9023 11.8235C14.0003 11.4902 14.1866 11.1616 14.4611 10.8376C14.7356 10.5137 15.1376 10.3522 15.667 10.3529C16.1964 10.3529 16.5933 10.5 16.8576 10.7941C17.1219 11.0882 17.2544 11.4118 17.2552 11.7647C17.2552 12.098 17.1572 12.3973 16.9611 12.6624C16.765 12.9275 16.5297 13.1969 16.2552 13.4706C15.569 14.0588 15.1521 14.5247 15.0046 14.8682C14.8572 15.2118 14.7839 15.8243 14.7846 16.7059Z" fill="white"/>
</svg>
