<svg width="32" height="32" viewBox="0 0 32 32" fill="none" xmlns="http://www.w3.org/2000/svg">
<rect width="32" height="32" rx="6" fill="#0178FF"/>
<path d="M6.63778 10.7622L14.9711 15.2389C15.2511 15.3889 15.6133 15.46 15.9778 15.46C16.3422 15.46 16.7044 15.3889 16.9844 15.2389L25.3178 10.7622C25.8611 10.47 26.3744 9.33334 25.3778 9.33334H6.57889C5.58222 9.33334 6.09556 10.47 6.63778 10.7622ZM25.57 13.21L16.9844 17.6844C16.6067 17.8822 16.3422 17.9056 15.9778 17.9056C15.6133 17.9056 15.3489 17.8822 14.9711 17.6844C14.5933 17.4867 7.04556 13.53 6.42889 13.2089C5.99556 12.9822 6 13.2478 6 13.4522V21.5556C6 22.0222 6.62889 22.6667 7.11111 22.6667H24.8889C25.3711 22.6667 26 22.0222 26 21.5556V13.4533C26 13.2489 26.0044 12.9833 25.57 13.21Z" fill="white"/>
</svg>
