<svg width="50" height="32" viewBox="0 0 50 32" fill="none" xmlns="http://www.w3.org/2000/svg">
<g clip-path="url(#clip0_2_3919)">
<path opacity="0.07" d="M46.0526 0H3.94737C1.71053 0 0 1.71053 0 3.94737V27.6316C0 29.8684 1.84211 31.5789 3.94737 31.5789H46.0526C48.2895 31.5789 50 29.8684 50 27.6316V3.94737C50 1.71053 48.1579 0 46.0526 0Z" fill="black"/>
<path d="M46.0523 1.3158C47.4996 1.3158 48.6839 2.50001 48.6839 3.94737V27.6316C48.6839 29.079 47.4996 30.2632 46.0523 30.2632H3.94701C2.49964 30.2632 1.31543 29.079 1.31543 27.6316V3.94737C1.31543 2.50001 2.49964 1.3158 3.94701 1.3158H46.0523Z" fill="white"/>
<path d="M19.7369 25C24.8237 25 28.9474 20.8763 28.9474 15.7895C28.9474 10.7026 24.8237 6.57895 19.7369 6.57895C14.6501 6.57895 10.5264 10.7026 10.5264 15.7895C10.5264 20.8763 14.6501 25 19.7369 25Z" fill="#EB001B"/>
<path d="M30.2633 25C35.3501 25 39.4738 20.8763 39.4738 15.7895C39.4738 10.7026 35.3501 6.57895 30.2633 6.57895C25.1764 6.57895 21.0527 10.7026 21.0527 15.7895C21.0527 20.8763 25.1764 25 30.2633 25Z" fill="#F79E1B"/>
<path d="M28.9475 15.7895C28.9475 12.6316 27.3685 9.86841 25.0001 8.28946C22.6317 9.99999 21.0527 12.7631 21.0527 15.7895C21.0527 18.8158 22.6317 21.7105 25.0001 23.2895C27.3685 21.7105 28.9475 18.9474 28.9475 15.7895Z" fill="#FF5F00"/>
</g>
<defs>
<clipPath id="clip0_2_3919">
<rect width="50" height="31.5789" fill="white"/>
</clipPath>
</defs>
</svg>
