<svg width="32" height="32" viewBox="0 0 32 32" fill="none" xmlns="http://www.w3.org/2000/svg">
<rect width="32" height="32" rx="6" fill="#34A853"/>
<g clip-path="url(#clip0_2_3886)">
<path fill-rule="evenodd" clip-rule="evenodd" d="M20.552 26.133C19.112 26.08 15.031 25.516 10.757 21.243C6.484 16.969 5.921 12.889 5.867 11.448C5.787 9.252 7.469 7.119 9.412 6.286C9.64598 6.18497 9.9022 6.1465 10.1555 6.17438C10.4089 6.20225 10.6506 6.29551 10.857 6.445C12.457 7.611 13.561 9.375 14.509 10.762C14.7176 11.0667 14.8068 11.4375 14.7596 11.8038C14.7123 12.17 14.532 12.5061 14.253 12.748L12.302 14.197C12.2077 14.2651 12.1414 14.365 12.1153 14.4783C12.0892 14.5916 12.1051 14.7105 12.16 14.813C12.602 15.616 13.388 16.812 14.288 17.712C15.189 18.612 16.441 19.45 17.3 19.942C17.4077 20.0025 17.5345 20.0194 17.6543 19.9892C17.774 19.9591 17.8777 19.8842 17.944 19.78L19.214 17.847C19.4475 17.5368 19.7919 17.3291 20.1752 17.2672C20.5584 17.2053 20.9508 17.2941 21.27 17.515C22.677 18.489 24.319 19.574 25.521 21.113C25.6826 21.3209 25.7854 21.5684 25.8187 21.8296C25.8519 22.0909 25.8144 22.3562 25.71 22.598C24.873 24.551 22.755 26.214 20.552 26.133Z" fill="white"/>
</g>
<defs>
<clipPath id="clip0_2_3886">
<rect width="24" height="24" fill="white" transform="translate(4 4)"/>
</clipPath>
</defs>
</svg>
