<svg width="40" height="40" viewBox="0 0 40 40" fill="none" xmlns="http://www.w3.org/2000/svg">
<g clip-path="url(#clip0_2_3904)">
<path d="M20 0C14.6969 0 9.60625 2.10844 5.85938 5.85781C2.10863 9.60868 0.00103897 14.6956 0 20C0 25.3022 2.10938 30.3928 5.85938 34.1422C9.60625 37.8916 14.6969 40 20 40C25.3031 40 30.3937 37.8916 34.1406 34.1422C37.8906 30.3928 40 25.3022 40 20C40 14.6978 37.8906 9.60719 34.1406 5.85781C30.3937 2.10844 25.3031 0 20 0Z" fill="url(#paint0_linear_2_3904)"/>
<path d="M9.0534 19.7888C14.8846 17.2488 18.7721 15.5741 20.7159 14.765C26.2721 12.4547 27.4253 12.0534 28.1784 12.0399C28.344 12.0372 28.7128 12.0781 28.9534 12.2727C29.1534 12.4367 29.2096 12.6586 29.2378 12.8144C29.2628 12.97 29.2971 13.3247 29.269 13.6016C28.969 16.7641 27.6659 24.4384 27.0034 27.9806C26.7253 29.4794 26.1721 29.9819 25.6378 30.0309C24.4753 30.1378 23.594 29.2634 22.469 28.5263C20.7096 27.3722 19.7159 26.6541 18.0065 25.5281C16.0315 24.2269 17.3128 23.5116 18.4378 22.3428C18.7315 22.0369 23.8503 17.3822 23.9471 16.96C23.9596 16.9072 23.9721 16.7103 23.8534 16.6066C23.7378 16.5025 23.5659 16.5381 23.4409 16.5663C23.2628 16.6063 20.4534 18.465 15.0034 22.1422C14.2065 22.6903 13.4846 22.9575 12.8346 22.9434C12.1221 22.9281 10.7471 22.5397 9.72527 22.2078C8.47527 21.8006 7.4784 21.5853 7.5659 20.8938C7.60965 20.5338 8.10652 20.1653 9.0534 19.7888Z" fill="white"/>
</g>
<defs>
<linearGradient id="paint0_linear_2_3904" x1="2000" y1="0" x2="2000" y2="4000" gradientUnits="userSpaceOnUse">
<stop stop-color="#2AABEE"/>
<stop offset="1" stop-color="#229ED9"/>
</linearGradient>
<clipPath id="clip0_2_3904">
<rect width="40" height="40" fill="white"/>
</clipPath>
</defs>
</svg>
