<svg width="50" height="32" viewBox="0 0 50 32" fill="none" xmlns="http://www.w3.org/2000/svg">
<g clip-path="url(#clip0_2_3915)">
<path opacity="0.07" d="M46.0526 0H3.94737C1.71053 0 0 1.71053 0 3.94737V27.6316C0 29.8684 1.84211 31.5789 3.94737 31.5789H46.0526C48.2895 31.5789 50 29.8684 50 27.6316V3.94737C50 1.71053 48.1579 0 46.0526 0Z" fill="black"/>
<path d="M46.0523 1.3158C47.4996 1.3158 48.6839 2.50001 48.6839 3.94737V27.6316C48.6839 29.079 47.4996 30.2632 46.0523 30.2632H3.94701C2.49964 30.2632 1.31543 29.079 1.31543 27.6316V3.94737C1.31543 2.50001 2.49964 1.3158 3.94701 1.3158H46.0523Z" fill="white"/>
<path d="M37.237 13.2895H36.8423C36.3159 14.6053 35.9212 15.2631 35.5265 17.2368H38.0265C37.6317 15.2631 37.6317 14.3421 37.237 13.2895ZM41.0528 21.0526H38.8159C38.6844 21.0526 38.6844 21.0526 38.5528 20.921L38.2896 19.7368L38.158 19.4737H35.0002C34.8686 19.4737 34.737 19.4737 34.737 19.7368L34.3423 20.921C34.3423 21.0526 34.2107 21.0526 34.2107 21.0526H31.4475L31.7107 20.3947L35.5265 11.4474C35.5265 10.7895 35.9212 10.5263 36.5791 10.5263H38.5528C38.6844 10.5263 38.8159 10.5263 38.8159 10.7895L40.658 19.3421C40.7896 19.8684 40.9212 20.2631 40.9212 20.7895C41.0528 20.921 41.0528 20.921 41.0528 21.0526ZM23.4212 20.6579L23.9475 18.2895C24.0791 18.2895 24.2107 18.421 24.2107 18.421C25.1317 18.8158 26.0528 19.0789 26.9738 18.9474C27.237 18.9474 27.6317 18.8158 27.8949 18.6842C28.5528 18.421 28.5528 17.7631 28.0265 17.2368C27.7633 16.9737 27.3686 16.8421 26.9738 16.5789C26.4475 16.3158 25.9212 16.0526 25.5265 15.6579C23.9475 14.3421 24.4738 12.5 25.3949 11.5789C26.1844 11.0526 26.5791 10.5263 27.6317 10.5263C29.2107 10.5263 30.9212 10.5263 31.7107 10.7895H31.8423C31.7107 11.5789 31.5791 12.2368 31.3159 13.0263C30.658 12.7631 30.0002 12.5 29.3423 12.5C28.9475 12.5 28.5528 12.5 28.158 12.6316C27.8949 12.6316 27.7633 12.7631 27.6317 12.8947C27.3686 13.1579 27.3686 13.5526 27.6317 13.8158L28.2896 14.3421C28.8159 14.6053 29.3423 14.8684 29.737 15.1316C30.3949 15.5263 31.0528 16.1842 31.1844 16.9737C31.4475 18.1579 31.0528 19.2105 30.0002 20C29.3423 20.5263 29.0791 20.7895 28.158 20.7895C26.3159 20.7895 24.8686 20.921 23.6844 20.5263C23.5528 20.7895 23.5528 20.7895 23.4212 20.6579ZM18.8159 21.0526C18.9475 20.1316 18.9475 20.1316 19.0791 19.7368C19.737 16.8421 20.3949 13.8158 20.9212 10.921C21.0528 10.6579 21.0528 10.5263 21.3159 10.5263H23.6844C23.4212 12.1053 23.158 13.2895 22.7633 14.7368C22.3686 16.7105 21.9738 18.6842 21.4475 20.6579C21.4475 20.921 21.3159 20.921 21.0528 20.921L18.8159 21.0526ZM6.5791 10.7895C6.5791 10.6579 6.84226 10.5263 6.97384 10.5263H11.4475C12.1054 10.5263 12.6317 10.921 12.7633 11.5789L13.9475 17.3684C13.9475 17.5 13.9475 17.5 14.0791 17.6316C14.0791 17.5 14.2107 17.5 14.2107 17.5L16.9738 10.7895C16.8423 10.6579 16.9738 10.5263 17.1054 10.5263H19.8686C19.8686 10.6579 19.8686 10.6579 19.737 10.7895L15.658 20.3947C15.5265 20.6579 15.5265 20.7895 15.3949 20.921C15.2633 21.0526 15.0002 20.921 14.737 20.921H12.7633C12.6317 20.921 12.5002 20.921 12.5002 20.6579L10.3949 12.5C10.1317 12.2368 9.737 11.8421 9.21068 11.7105C8.42121 11.3158 6.97384 11.0526 6.71068 11.0526L6.5791 10.7895Z" fill="#142688"/>
</g>
<defs>
<clipPath id="clip0_2_3915">
<rect width="50" height="31.5789" fill="white"/>
</clipPath>
</defs>
</svg>
