<svg width="40" height="40" viewBox="0 0 40 40" fill="none" xmlns="http://www.w3.org/2000/svg">
<path d="M37.5784 13.3958C37.8595 15.363 38 17.3021 38 19.2131V21.911L37.5784 27.7283C37.3536 29.3583 36.8759 30.5386 36.1452 31.2693C35.3583 32.0562 34.178 32.5621 32.6042 32.7869C31.0866 32.8993 29.2599 32.9836 27.1241 33.0398C25.0445 33.096 23.3302 33.1241 21.9813 33.1241H19.9578C13.719 33.0679 9.64403 32.9555 7.73302 32.7869C7.73302 32.7869 7.5082 32.7588 7.05855 32.7026C6.6089 32.6464 6.24356 32.5902 5.96253 32.534C5.6815 32.4778 5.31616 32.3372 4.86651 32.1124C4.47307 31.8876 4.10773 31.6066 3.77049 31.2693C3.48946 30.9321 3.20843 30.4824 2.9274 29.9204C2.70258 29.3021 2.56206 28.7682 2.50585 28.3185L2.33724 27.7283C2.11241 25.7611 2 23.822 2 21.911V19.2131L2.33724 13.3958C2.56206 11.7658 3.03981 10.5855 3.77049 9.8548C4.55738 9.01171 5.76581 8.50585 7.39578 8.33724C8.91335 8.22482 10.7119 8.14052 12.7916 8.08431C14.8712 8.0281 16.5855 8 17.9344 8H19.9578C25.0164 8 29.2318 8.11241 32.6042 8.33724C34.178 8.50585 35.3583 9.01171 36.1452 9.8548C36.37 10.0796 36.5667 10.3607 36.7354 10.6979C36.904 10.9789 37.0445 11.2881 37.1569 11.6253C37.2693 11.9063 37.3536 12.1874 37.4098 12.4684C37.466 12.7494 37.5222 12.9742 37.5784 13.1429V13.3958ZM24.8478 20.815L26.0281 20.2248L16.3326 15.1663V25.2834L24.8478 20.815Z" fill="#FF3232"/>
</svg>
